<?xml version="1.0" standalone="no"?>
<!DOCTYPE svg PUBLIC "-//W3C//DTD SVG 1.1//EN" "http://www.w3.org/Graphics/SVG/1.1/DTD/svg11.dtd" >
<svg xmlns="http://www.w3.org/2000/svg" xmlns:xlink="http://www.w3.org/1999/xlink" version="1.1">
<metadata>
Created by FontForge 20150824 at Fri Jul  8 16:28:06 2016
 By Everything Fonts
Spaced and kerned with iKern.
</metadata>
<defs>
<font id="MuseoSlab-700" horiz-adv-x="584" >
  <font-face 
    font-family="Museo Slab 700"
    font-weight="600"
    font-stretch="normal"
    units-per-em="1000"
    panose-1="2 0 0 0 0 0 0 0 0 0"
    ascent="750"
    descent="-250"
    x-height="510"
    cap-height="710"
    bbox="-139 -234 1134 913"
    underline-thickness="50"
    underline-position="-100"
    stemh="95"
    stemv="127"
    unicode-range="U+0020-FB04"
  />
<missing-glyph horiz-adv-x="510" 
d="M5 0v700h500v-700h-500zM255 395l170 255h-340zM285 350l170 -255v510zM55 95l170 255l-170 255v-510zM85 50h340l-170 255z" />
    <glyph glyph-name="f_f" unicode="ff" horiz-adv-x="750" 
d="M46 0v95h74v320h-79v95h79v23c0 165 132 186 200 186c30 0 52 -4 52 -4v-102s-13 3 -39 3c-29 0 -86 -6 -86 -80v-26h232v23c0 165 131 186 199 186c31 0 53 -4 53 -4v-102s-13 3 -39 3c-29 0 -87 -6 -87 -80v-26h116v-95h-116v-320h87v-95h-287v95h74v320h-232v-320h86
v-95h-287z" />
    <glyph glyph-name="fi" unicode="fi" horiz-adv-x="708" 
d="M46 0v95h74v320h-79v95h79v23c0 165 132 186 200 186c30 0 52 -4 52 -4v-102s-13 3 -39 3c-29 0 -86 -6 -86 -80v-26h358v-415h74v-95h-274v95h74v320h-232v-320h86v-95h-287zM478 597v113h128v-113h-128z" />
    <glyph glyph-name="fl" unicode="fl" horiz-adv-x="695" 
d="M46 0v95h74v320h-79v95h79v13c0 157 127 205 258 205c116 0 210 -28 210 -28v-530c0 -46 9 -70 54 -70c12 0 22 1 22 1v-102s-21 -3 -47 -3c-80 0 -156 26 -156 166v458s-33 10 -89 10c-70 0 -125 -27 -125 -104v-16h115v-95h-115v-320h86v-95h-287z" />
    <glyph glyph-name="f_f_i" unicode="ffi" horiz-adv-x="1067" 
d="M46 0v95h74v320h-79v95h79v23c0 165 132 186 200 186c30 0 52 -4 52 -4v-102s-13 3 -39 3c-29 0 -86 -6 -86 -80v-26h232v23c0 165 131 186 199 186c31 0 53 -4 53 -4v-102s-13 3 -39 3c-29 0 -87 -6 -87 -80v-26h359v-415h74v-95h-275v95h74v320h-232v-320h87v-95h-287
v95h74v320h-232v-320h86v-95h-287zM836 597v113h129v-113h-129z" />
    <glyph glyph-name="f_f_l" unicode="ffl" horiz-adv-x="1054" 
d="M46 0v95h74v320h-79v95h79v23c0 165 131 186 200 186c30 0 52 -4 52 -4v-102s-14 3 -38 3c-30 0 -87 -6 -87 -80v-26h232v13c0 157 127 205 258 205c116 0 210 -28 210 -28v-530c0 -46 9 -70 54 -70c11 0 22 1 22 1v-102s-21 -3 -48 -3c-79 0 -155 26 -155 166v458
s-34 10 -89 10c-70 0 -126 -27 -126 -104v-16h116v-95h-116v-320h87v-95h-287v95h74v320h-232v-320h86v-95h-287z" />
    <glyph glyph-name="f_j" unicode="fj" horiz-adv-x="678" 
d="M46 0v95h74v320h-79v95h79v23c0 165 132 186 200 186c30 0 52 -4 52 -4v-102s-13 3 -39 3c-29 0 -86 -6 -86 -80v-26h355v-522c0 -171 -143 -195 -213 -195c-23 0 -38 3 -38 3v101s9 -2 22 -2c36 0 102 12 102 98v422h-228v-320h86v-95h-287zM475 597v113h127v-113h-127z
" />
    <glyph glyph-name=".notdef" horiz-adv-x="510" 
d="M5 0v700h500v-700h-500zM255 395l170 255h-340zM285 350l170 -255v510zM55 95l170 255l-170 255v-510zM85 50h340l-170 255z" />
    <glyph glyph-name="space" unicode=" " horiz-adv-x="250" 
 />
    <glyph glyph-name="exclam" unicode="!" horiz-adv-x="266" 
d="M77 205l-10 505h132l-11 -505h-111zM72 0v119h123v-119h-123z" />
    <glyph glyph-name="quotedbl" unicode="&#x22;" horiz-adv-x="370" 
d="M218 500v223h94v-223h-94zM58 500v223h94v-223h-94z" />
    <glyph glyph-name="numbersign" unicode="#" horiz-adv-x="711" 
d="M125 0l32 187h-119l15 91h119l25 140h-118l16 92h118l35 200h101l-35 -200h137l35 200h102l-35 -200h120l-15 -92h-120l-25 -140h119l-15 -91h-120l-32 -187h-102l32 187h-136l-33 -187h-101zM274 278h137l25 140h-137z" />
    <glyph glyph-name="dollar" unicode="$" horiz-adv-x="556" 
d="M38 100l68 91s82 -75 176 -75c57 0 106 32 106 86c0 120 -337 90 -337 309c0 97 76 173 187 191v109h86v-107c116 -10 176 -73 176 -73l-53 -98s-73 61 -156 61c-65 0 -111 -31 -111 -81c0 -128 337 -92 337 -304c0 -99 -70 -188 -193 -203v-107h-86v107
c-129 15 -200 94 -200 94z" />
    <glyph glyph-name="percent" unicode="%" horiz-adv-x="791" 
d="M202 406c-91 0 -163 70 -163 158c0 86 72 158 163 158c90 0 163 -72 163 -158c0 -88 -73 -158 -163 -158zM64 0l545 710h117l-545 -710h-117zM202 498c37 0 67 29 67 66c0 36 -30 66 -67 66s-66 -30 -66 -66c0 -37 29 -66 66 -66zM427 145c0 86 72 158 163 158
c90 0 163 -72 163 -158c0 -87 -73 -157 -163 -157c-91 0 -163 70 -163 157zM524 146c0 -37 29 -66 66 -66s67 29 67 66c0 36 -30 66 -67 66s-66 -30 -66 -66z" />
    <glyph glyph-name="ampersand" unicode="&#x26;" horiz-adv-x="684" 
d="M43 200c0 79 48 152 126 178v2s-96 35 -96 155c0 126 106 187 233 187c47 0 94 -12 94 -12l-30 -102s-25 6 -48 6c-66 0 -119 -34 -119 -94c0 -45 23 -99 109 -99h133v96h126v-96h92v-104h-92v-88c0 -145 -100 -241 -264 -241c-160 0 -264 93 -264 212zM174 211
c0 -63 52 -108 134 -108c83 0 137 44 137 133v81h-141c-79 0 -130 -37 -130 -106z" />
    <glyph glyph-name="quotesingle" unicode="'" horiz-adv-x="212" 
d="M58 500v223h96v-223h-96z" />
    <glyph glyph-name="parenleft" unicode="(" horiz-adv-x="328" 
d="M181 -95c-74 121 -119 274 -119 438c0 144 43 278 119 398h107c-73 -123 -113 -258 -113 -399c0 -149 38 -299 113 -437h-107z" />
    <glyph glyph-name="parenright" unicode=")" horiz-adv-x="329" 
d="M40 -95c75 138 113 288 113 437c0 141 -39 276 -113 399h108c76 -120 119 -254 119 -398c0 -164 -45 -317 -119 -438h-108z" />
    <glyph glyph-name="asterisk" unicode="*" horiz-adv-x="483" 
d="M172 321l-92 66l84 100v2l-126 31l34 108l121 -49l-9 131h115l-10 -131l122 49l35 -107l-127 -32v-2l84 -99l-91 -67l-69 110h-2z" />
    <glyph glyph-name="plus" unicode="+" horiz-adv-x="619" 
d="M42 236v99h216v237h103v-237h216v-99h-216v-236h-103v236h-216z" />
    <glyph glyph-name="comma" unicode="," horiz-adv-x="273" 
d="M15 -119l72 248h126l-101 -248h-97z" />
    <glyph glyph-name="hyphen" unicode="-" horiz-adv-x="465" 
d="M82 230v111h301v-111h-301z" />
    <glyph glyph-name="period" unicode="." horiz-adv-x="267" 
d="M70 0v128h127v-128h-127z" />
    <glyph glyph-name="slash" unicode="/" horiz-adv-x="438" 
d="M37 -42l255 788h109l-255 -788h-109z" />
    <glyph glyph-name="zero" unicode="0" horiz-adv-x="623" 
d="M312 -12c-195 0 -258 164 -258 368s63 366 258 366c194 0 257 -162 257 -366s-63 -368 -257 -368zM312 103c97 0 125 111 125 253c0 140 -28 251 -125 251c-98 0 -125 -111 -125 -251c0 -142 27 -253 125 -253z" />
    <glyph glyph-name="one" unicode="1" horiz-adv-x="505" 
d="M50 0v105h155v400c0 24 1 48 1 48h-2s-8 -17 -31 -40l-57 -54l-76 80l178 171h113v-605h153v-105h-434z" />
    <glyph glyph-name="two" unicode="2" horiz-adv-x="594" 
d="M51 0c-4 23 -7 43 -7 63c0 256 340 290 340 443c0 67 -48 101 -108 101c-83 0 -134 -89 -134 -89l-90 62s65 142 235 142c125 0 232 -76 232 -210c0 -220 -330 -261 -333 -407h245v90h112v-195h-492z" />
    <glyph glyph-name="three" unicode="3" horiz-adv-x="580" 
d="M63 521v189h448v-91l-167 -198c91 -14 183 -78 183 -200c0 -121 -91 -233 -253 -233c-150 0 -235 95 -235 95l64 92s69 -72 163 -72c74 0 128 48 128 113c0 70 -58 112 -139 112c-16 0 -31 -2 -39 -2l-29 63l154 188c13 15 30 29 30 29v2s-23 -3 -40 -3h-156v-84h-112z
" />
    <glyph glyph-name="four" unicode="4" horiz-adv-x="614" 
d="M24 183v79l307 448h153v-426h91v-101h-91v-183h-128v183h-332zM331 528l-173 -242v-2h198v237c0 26 6 61 6 61h-3s-12 -29 -28 -54z" />
    <glyph glyph-name="five" unicode="5" horiz-adv-x="574" 
d="M38 79l62 93s63 -69 158 -69c78 0 140 51 140 123s-53 123 -144 123c-71 0 -115 -32 -115 -32l-72 27l33 366h386v-189h-112v84h-162l-14 -139c-1 -14 -4 -28 -4 -28h2s31 16 86 16c153 0 248 -99 248 -225c0 -136 -109 -241 -264 -241c-148 0 -228 91 -228 91z" />
    <glyph glyph-name="six" unicode="6" horiz-adv-x="605" 
d="M324 -12c-153 0 -274 123 -274 332c0 196 107 402 332 402c85 0 142 -30 142 -30l-37 -108s-45 23 -101 23c-112 0 -173 -95 -191 -194h2c27 30 83 50 140 50c138 0 229 -109 229 -235c0 -133 -100 -240 -242 -240zM184 268c0 -74 58 -165 139 -165c68 0 110 52 110 126
c0 70 -43 129 -139 129c-63 0 -110 -37 -110 -90z" />
    <glyph glyph-name="seven" unicode="7" horiz-adv-x="551" 
d="M89 0l283 567c12 26 24 39 24 39v2s-20 -3 -46 -3h-202v-84h-111v189h497v-90l-311 -620h-134z" />
    <glyph glyph-name="eight" unicode="8" horiz-adv-x="606" 
d="M49 201c0 105 87 170 110 186c-48 34 -82 78 -82 142c0 96 73 193 227 193c135 0 234 -75 234 -192c0 -91 -65 -162 -80 -178c56 -34 97 -83 97 -154c0 -107 -92 -210 -251 -210c-154 0 -255 97 -255 213zM204 527c0 -69 76 -94 161 -130c12 16 48 60 48 118
c0 61 -43 95 -108 95c-67 0 -101 -37 -101 -83zM178 215c0 -69 57 -115 126 -115c64 0 120 41 120 100c0 68 -76 89 -178 135c-19 -17 -68 -56 -68 -120z" />
    <glyph glyph-name="nine" unicode="9" horiz-adv-x="605" 
d="M39 482c0 133 100 240 242 240c153 0 274 -124 274 -332c0 -193 -105 -402 -333 -402c-85 0 -143 30 -143 30l37 108s46 -23 102 -23c114 0 174 94 192 195h-2c-27 -29 -83 -49 -140 -49c-138 0 -229 109 -229 233zM172 482c0 -70 44 -127 135 -127c62 0 114 37 114 91
c0 78 -64 161 -140 161c-66 0 -109 -55 -109 -125z" />
    <glyph glyph-name="colon" unicode=":" horiz-adv-x="299" 
d="M86 0v128h127v-128h-127zM86 381v129h127v-129h-127z" />
    <glyph glyph-name="semicolon" unicode=";" horiz-adv-x="301" 
d="M94 381v129h124v-129h-124zM31 -119l62 248h127l-92 -248h-97z" />
    <glyph glyph-name="less" unicode="&#x3c;" horiz-adv-x="619" 
d="M53 245v82l481 214v-111l-347 -143v-2l347 -143v-111z" />
    <glyph glyph-name="equal" unicode="=" horiz-adv-x="619" 
d="M65 339v98h488v-98h-488zM65 134v98h488v-98h-488z" />
    <glyph glyph-name="greater" unicode="&#x3e;" horiz-adv-x="619" 
d="M84 31v111l347 143v2l-347 143v111l481 -214v-82z" />
    <glyph glyph-name="question" unicode="?" horiz-adv-x="483" 
d="M141 205v48c0 145 164 168 164 271c0 47 -42 83 -97 83c-57 0 -106 -42 -106 -42l-71 87s70 72 188 72c113 0 219 -70 219 -188c0 -165 -175 -184 -175 -292v-39h-122zM140 0v119h123v-119h-123z" />
    <glyph glyph-name="at" unicode="@" horiz-adv-x="805" 
d="M37 241c0 207 158 372 390 372c183 0 262 -103 262 -218v-250h72v-91h-276c-135 0 -215 90 -215 186c0 95 78 183 215 183h84c-1 51 -66 88 -147 88c-152 0 -259 -127 -259 -273c0 -142 104 -266 271 -266v-99c-238 0 -397 161 -397 368zM396 241c0 -51 38 -96 97 -96h76
v196h-74c-61 0 -99 -44 -99 -100z" />
    <glyph glyph-name="A" unicode="A" horiz-adv-x="729" 
d="M12 0v98h65l213 612h149l213 -612h65v-98h-267v98h70l-44 133h-224l-44 -133h70v-98h-266zM282 333h164l-67 201c-11 35 -13 62 -13 62h-3s-3 -27 -13 -62z" />
    <glyph glyph-name="B" unicode="B" horiz-adv-x="689" 
d="M50 0v98h85v513h-85v99h326c53 0 90 -4 127 -19c64 -25 108 -85 108 -164c0 -66 -32 -123 -87 -152v-2c79 -24 115 -93 115 -168c0 -99 -64 -170 -141 -193c-35 -10 -68 -12 -106 -12h-342zM266 420h125c56 0 87 39 87 93c0 35 -13 66 -41 81c-17 8 -36 11 -61 11h-110
v-185zM266 105h132c17 0 36 2 51 8c36 15 57 55 57 100c0 61 -38 103 -103 103h-137v-211z" />
    <glyph glyph-name="C" unicode="C" horiz-adv-x="745" 
d="M43 358c0 210 160 364 366 364c86 0 277 -30 277 -142v-96h-119v55c0 53 -94 71 -152 71c-137 0 -237 -96 -237 -246c0 -160 104 -264 244 -264c43 0 154 14 154 70v55h119v-97c0 -106 -183 -140 -281 -140c-215 0 -371 163 -371 370z" />
    <glyph glyph-name="D" unicode="D" horiz-adv-x="781" 
d="M50 0v98h85v513h-85v99h307c57 0 102 -3 148 -17c138 -41 230 -163 230 -338c0 -168 -85 -289 -220 -334c-48 -17 -98 -21 -157 -21h-308zM266 105h86c45 0 81 4 116 18c81 33 132 116 132 232c0 120 -54 202 -137 234c-36 14 -69 16 -111 16h-86v-500z" />
    <glyph glyph-name="E" unicode="E" horiz-adv-x="640" 
d="M50 0v98h85v513h-85v99h527v-183h-112v78h-199v-195h234v-105h-234v-200h214v80h112v-185h-542z" />
    <glyph glyph-name="F" unicode="F" horiz-adv-x="588" 
d="M50 0v98h85v513h-85v99h507v-184h-112v73h-179v-204h231v-105h-231v-192h94v-98h-310z" />
    <glyph glyph-name="G" unicode="G" horiz-adv-x="768" 
d="M43 358c0 211 154 364 375 364c127 0 278 -50 278 -140v-98h-119v52c0 49 -77 74 -153 74c-151 0 -245 -96 -245 -247c0 -152 94 -263 251 -263c57 0 163 15 163 74v76h-129v98h248v-214c0 -108 -190 -146 -295 -146c-218 0 -374 158 -374 370z" />
    <glyph glyph-name="H" unicode="H" horiz-adv-x="855" 
d="M50 0v98h85v513h-85v99h302v-99h-86v-205h323v205h-86v99h302v-99h-85v-513h85v-98h-302v98h86v203h-323v-203h86v-98h-302z" />
    <glyph glyph-name="I" unicode="I" horiz-adv-x="403" 
d="M50 0v98h85v513h-85v99h302v-99h-86v-513h86v-98h-302z" />
    <glyph glyph-name="J" unicode="J" horiz-adv-x="566" 
d="M20 202v49h126v-38c0 -57 21 -110 90 -110c49 0 87 31 87 110v398h-98v99h304v-99h-75v-403c0 -153 -111 -220 -219 -220c-106 0 -215 62 -215 214z" />
    <glyph glyph-name="K" unicode="K" horiz-adv-x="714" 
d="M50 0v98h85v513h-85v99h284v-99h-68v-193h79l135 193h-61v99h260v-99h-64l-171 -235v-2s24 -11 46 -53l109 -198c9 -17 23 -25 47 -25h33v-98h-91c-60 0 -79 15 -100 53l-124 234c-11 19 -25 26 -53 26h-45v-215h82v-98h-298z" />
    <glyph glyph-name="L" unicode="L" horiz-adv-x="614" 
d="M51 0v98h85v507h-85v105h302v-105h-86v-500h210v110h112v-215h-538z" />
    <glyph glyph-name="M" unicode="M" horiz-adv-x="970" 
d="M38 0v98h84l42 513h-86v99h231l158 -401c12 -35 17 -59 17 -59h2s5 24 18 59l157 401h231v-99h-85l41 -513h84v-98h-291v98h79l-26 358c-2 25 3 66 3 66h-3s-8 -39 -17 -63l-136 -327h-112l-136 327c-9 24 -16 63 -16 63h-4s5 -41 3 -66l-26 -358h80v-98h-292z" />
    <glyph glyph-name="N" unicode="N" horiz-adv-x="847" 
d="M50 0v98h85v513h-85v99h216l299 -457c14 -23 26 -60 26 -60h3s-5 41 -4 67v351h-88v99h304v-99h-85v-611h-131l-299 455c-14 24 -26 60 -26 60h-4s6 -40 5 -66v-351h88v-98h-304z" />
    <glyph glyph-name="O" unicode="O" horiz-adv-x="820" 
d="M42 360c0 203 158 362 368 362s368 -159 368 -362c0 -209 -158 -372 -368 -372s-368 163 -368 372zM177 360c0 -146 105 -257 233 -257s233 111 233 257c0 140 -105 247 -233 247s-233 -107 -233 -247z" />
    <glyph glyph-name="P" unicode="P" horiz-adv-x="663" 
d="M50 0v98h85v513h-85v99h340c42 0 85 -3 120 -18c77 -32 127 -111 127 -210c0 -101 -53 -187 -135 -216c-33 -11 -69 -14 -109 -14h-127v-154h86v-98h-302zM266 357h110c30 0 52 4 72 14c38 19 58 59 58 111c0 49 -19 87 -52 106c-20 12 -45 17 -77 17h-111v-248z" />
    <glyph glyph-name="Q" unicode="Q" horiz-adv-x="825" 
d="M43 358c0 206 156 364 369 364c209 0 369 -149 369 -356c0 -90 -30 -168 -81 -231l81 -73l-74 -82l-80 79c-59 -47 -133 -71 -215 -71c-212 0 -369 164 -369 370zM178 358c0 -144 103 -255 234 -255c42 0 91 13 125 40l-100 96l72 80l100 -99c24 39 40 88 40 140
c0 139 -103 247 -237 247c-131 0 -234 -106 -234 -249z" />
    <glyph glyph-name="R" unicode="R" horiz-adv-x="717" 
d="M50 0v98h85v513h-85v99h313c52 0 95 -3 135 -15c79 -26 131 -90 131 -190c0 -99 -52 -169 -134 -197v-2s21 -11 35 -37l82 -148c10 -18 24 -23 48 -23h23v-98h-83c-59 0 -77 12 -99 53l-101 183c-15 27 -28 36 -69 36h-65v-174h82v-98h-298zM266 377h118
c69 0 114 41 114 117c0 46 -17 82 -56 98c-20 9 -47 13 -80 13h-96v-228z" />
    <glyph glyph-name="S" unicode="S" horiz-adv-x="595" 
d="M48 229h119v-53c0 -46 58 -73 125 -73c72 0 123 31 123 88c0 72 -81 95 -163 127c-95 36 -188 79 -188 206c0 143 116 198 238 198c112 0 225 -43 225 -125v-93h-119v48c0 36 -53 55 -106 55c-58 0 -106 -24 -106 -78c0 -65 66 -88 140 -116c106 -38 212 -80 212 -213
c0 -145 -122 -212 -256 -212c-118 0 -244 53 -244 160v81z" />
    <glyph glyph-name="T" unicode="T" horiz-adv-x="676" 
d="M187 0v98h85v507h-134v-107h-111v212h622v-212h-111v107h-135v-507h86v-98h-302z" />
    <glyph glyph-name="U" unicode="U" horiz-adv-x="809" 
d="M116 267v344h-85v99h302v-99h-86v-344c0 -40 9 -76 24 -101c25 -40 74 -63 134 -63c59 0 107 22 133 64c16 27 24 60 24 101v343h-85v99h301v-99h-85v-344c0 -69 -19 -133 -52 -178c-52 -68 -141 -101 -236 -101c-101 0 -187 37 -236 100c-37 46 -53 108 -53 179z" />
    <glyph glyph-name="V" unicode="V" horiz-adv-x="719" 
d="M291 0l-216 611h-65v99h277v-99h-75l133 -405c9 -29 12 -64 12 -64h4s3 35 13 64l132 405h-74v99h277v-99h-66l-216 -611h-136z" />
    <glyph glyph-name="W" unicode="W" horiz-adv-x="1017" 
d="M14 611v99h277v-99h-83l92 -405c6 -29 8 -62 8 -62h4s3 33 11 62l133 504h105l133 -504c8 -29 11 -62 11 -62h4s2 33 8 62l92 405h-83v99h277v-99h-65l-151 -611h-147l-119 448c-8 29 -11 65 -11 65h-3s-3 -36 -11 -65l-119 -448h-147l-151 611h-65z" />
    <glyph glyph-name="X" unicode="X" horiz-adv-x="692" 
d="M32 0v98h63l179 262l-174 251h-63v99h268v-99h-70l98 -147c13 -16 20 -30 20 -30h2c0 -1 7 13 19 30l95 147h-68v99h258v-99h-62l-180 -261l177 -252h63v-98h-269v98h70l-99 149c-13 17 -20 31 -20 31h-2c-2 0 -8 -14 -19 -31l-95 -149h69v-98h-260z" />
    <glyph glyph-name="Y" unicode="Y" horiz-adv-x="658" 
d="M178 0v98h86v199l-189 314h-65v99h264v-99h-69l108 -186c10 -17 15 -32 15 -32h2s6 15 16 32l108 186h-68v99h262v-99h-64l-189 -314v-199h85v-98h-302z" />
    <glyph glyph-name="Z" unicode="Z" horiz-adv-x="643" 
d="M52 0v83l341 489c14 20 30 34 30 34v2s-21 -3 -41 -3h-214v-107h-111v212h524v-82l-341 -490c-14 -20 -30 -34 -30 -34v-2s21 3 41 3h229v110h112v-215h-540z" />
    <glyph glyph-name="bracketleft" unicode="[" horiz-adv-x="330" 
d="M91 -95v836h197v-92h-89v-652h89v-92h-197z" />
    <glyph glyph-name="backslash" unicode="\" horiz-adv-x="437" 
d="M292 -42l-255 788h108l255 -788h-108z" />
    <glyph glyph-name="bracketright" unicode="]" horiz-adv-x="330" 
d="M42 -3h89v652h-89v92h197v-836h-197v92z" />
    <glyph glyph-name="asciicircum" unicode="^" horiz-adv-x="619" 
d="M65 245l201 465h80l201 -465h-110l-131 331l-131 -331h-110z" />
    <glyph glyph-name="underscore" unicode="_" horiz-adv-x="569" 
d="M4 0h561v-98h-561v98z" />
    <glyph glyph-name="grave" unicode="`" horiz-adv-x="493" 
d="M256 757l-135 136h137l109 -136h-111z" />
    <glyph glyph-name="a" unicode="a" horiz-adv-x="565" 
d="M28 143c0 156 205 172 287 172h32v17c0 65 -41 88 -94 88c-76 0 -144 -49 -144 -49l-47 88s79 63 202 63c137 0 210 -71 210 -201v-204c0 -15 8 -22 22 -22h46v-95h-120c-47 0 -65 25 -65 54v6c0 16 3 26 3 26h-2s-43 -98 -161 -98c-87 0 -169 51 -169 155zM156 153
c0 -38 27 -70 74 -70c69 0 118 74 118 138v17h-21c-50 0 -171 -8 -171 -85z" />
    <glyph glyph-name="b" unicode="b" horiz-adv-x="622" 
d="M79 0v615h-78v95h205v-221c0 -25 -2 -43 -2 -43h2s46 76 153 76c138 0 227 -109 227 -267c0 -162 -100 -267 -235 -267c-111 0 -152 81 -152 81h-2s2 -18 2 -38v-31h-120zM203 252c0 -79 41 -157 126 -157c70 0 129 57 129 158c0 97 -52 160 -127 160
c-66 0 -128 -48 -128 -161z" />
    <glyph glyph-name="c" unicode="c" horiz-adv-x="558" 
d="M34 254c0 152 117 268 274 268c85 0 209 -32 209 -122v-70h-110v34c0 34 -52 50 -95 50c-93 0 -150 -64 -150 -157c0 -105 73 -162 160 -162c72 0 131 40 159 62l45 -90c-35 -33 -114 -79 -211 -79c-149 0 -281 101 -281 266z" />
    <glyph glyph-name="d" unicode="d" horiz-adv-x="641" 
d="M36 255c0 162 95 267 233 267c109 0 147 -72 147 -72h2s-2 15 -2 36v129h-79v95h205v-593c0 -15 8 -22 22 -22h46v-95h-120c-46 0 -65 25 -65 54v6c0 14 3 23 3 23h-2s-40 -95 -167 -95c-136 0 -223 109 -223 267zM164 255c0 -97 52 -160 126 -160c67 0 129 48 129 157
c0 83 -41 161 -125 161c-72 0 -130 -57 -130 -158z" />
    <glyph glyph-name="e" unicode="e" horiz-adv-x="558" 
d="M35 255c0 157 106 267 259 267c147 0 227 -107 227 -242c0 -15 -3 -43 -3 -43h-353c8 -94 76 -142 153 -142c83 0 148 54 148 54l49 -90s-78 -71 -206 -71c-169 0 -274 122 -274 267zM168 312h222c-2 70 -45 112 -99 112c-65 0 -111 -45 -123 -112z" />
    <glyph glyph-name="f" unicode="f" horiz-adv-x="391" 
d="M46 0v95h74v320h-79v95h79v23c0 165 132 186 200 186c30 0 52 -4 52 -4v-102s-13 3 -39 3c-29 0 -86 -6 -86 -80v-26h115v-95h-115v-320h86v-95h-287z" />
    <glyph glyph-name="g" unicode="g" horiz-adv-x="636" 
d="M123 -72c0 0 63 -34 141 -34s144 34 144 128v32c0 12 2 27 2 27h-2c-30 -45 -74 -71 -142 -71c-147 0 -229 118 -229 258s79 254 226 254c61 0 130 -23 158 -77h2s-2 7 -2 17c0 27 18 48 58 48h127v-95h-49c-13 0 -22 -7 -22 -20v-364c0 -175 -136 -241 -269 -241
c-64 0 -132 18 -182 44zM293 117c60 0 118 35 118 150c0 116 -58 147 -126 147c-77 0 -120 -56 -120 -142c0 -89 46 -155 128 -155z" />
    <glyph glyph-name="h" unicode="h" horiz-adv-x="679" 
d="M29 0v95h74v520h-79v95h206v-248c0 -25 -3 -43 -3 -43h2c25 49 88 103 176 103c113 0 178 -59 178 -194v-233h74v-95h-201v302c0 62 -16 104 -80 104c-90 0 -146 -78 -146 -172v-139h73v-95h-274z" />
    <glyph glyph-name="i" unicode="i" horiz-adv-x="350" 
d="M119 597v113h128v-113h-128zM46 0v95h74v320h-79v95h206v-415h73v-95h-274z" />
    <glyph glyph-name="j" unicode="j" horiz-adv-x="314" 
d="M108 597v113h128v-113h-128zM-16 -103c0 0 9 -2 22 -2c36 0 102 12 102 98v422h-79v95h206v-522c0 -171 -143 -195 -213 -195c-23 0 -38 3 -38 3v101z" />
    <glyph glyph-name="k" unicode="k" horiz-adv-x="607" 
d="M29 0v95h74v520h-79v95h206v-393h67l83 98h-59v95h245v-95h-66l-111 -131v-2c1 0 19 -9 39 -43l72 -126c9 -15 18 -18 42 -18h29v-95h-95c-43 0 -60 7 -80 44l-92 161c-10 18 -26 19 -44 19h-30v-129h55v-95h-256z" />
    <glyph glyph-name="l" unicode="l" horiz-adv-x="308" 
d="M75 162v453h-79v95h205v-540c0 -46 10 -70 52 -70c14 0 24 1 24 1v-102s-21 -3 -46 -3c-81 0 -156 27 -156 166z" />
    <glyph glyph-name="m" unicode="m" horiz-adv-x="997" 
d="M46 0v95h74v299c0 14 -8 21 -22 21h-57v95h133c45 0 67 -21 67 -57v-23c0 -11 -2 -22 -2 -22h2c26 52 90 114 174 114c71 0 122 -33 142 -111h2c28 60 96 111 177 111c103 0 164 -60 164 -194v-233h74v-95h-201v304c0 58 -11 102 -70 102c-87 0 -130 -87 -130 -181v-130
h74v-95h-200v304c0 55 -9 102 -69 102c-90 0 -131 -95 -131 -187v-124h73v-95h-274z" />
    <glyph glyph-name="n" unicode="n" horiz-adv-x="697" 
d="M46 0v95h74v298c0 14 -8 22 -22 22h-57v95h134c45 0 66 -21 66 -57v-23c0 -11 -2 -22 -2 -22h2c6 16 60 114 188 114c109 0 171 -59 171 -194v-233h74v-95h-200v302c0 62 -17 104 -81 104c-92 0 -146 -88 -146 -177v-134h73v-95h-274z" />
    <glyph glyph-name="o" unicode="o" horiz-adv-x="629" 
d="M34 255c0 156 125 267 280 267c156 0 281 -111 281 -267c0 -157 -125 -267 -280 -267c-156 0 -281 110 -281 267zM163 255c0 -95 69 -159 152 -159c82 0 151 64 151 159c0 94 -69 159 -151 159c-83 0 -152 -65 -152 -159z" />
    <glyph glyph-name="p" unicode="p" horiz-adv-x="650" 
d="M34 -105h74v498c0 14 -8 22 -22 22h-57v95h131c47 0 63 -22 63 -48v-3c0 -12 -1 -23 -1 -23h2s44 86 164 86c138 0 226 -109 226 -267c0 -162 -99 -267 -233 -267c-101 0 -147 72 -147 72h-2s3 -18 3 -44v-121h74v-95h-275v95zM231 252c0 -79 44 -157 127 -157
c70 0 128 57 128 158c0 97 -52 160 -127 160c-66 0 -128 -48 -128 -161z" />
    <glyph glyph-name="q" unicode="q" horiz-adv-x="621" 
d="M36 255c0 162 96 267 231 267c84 0 135 -49 156 -78h2s-2 14 -2 33v33h119v-615h74v-95h-274v95h74v126c0 26 2 44 2 44h-2s-44 -77 -153 -77c-138 0 -227 109 -227 267zM164 255c0 -97 52 -160 127 -160c66 0 128 48 128 161c0 79 -41 157 -127 157
c-69 0 -128 -57 -128 -158z" />
    <glyph glyph-name="r" unicode="r" horiz-adv-x="445" 
d="M46 0v95h74v298c0 14 -8 22 -22 22h-57v95h133c45 0 68 -19 68 -62v-30c0 -19 -2 -32 -2 -32h2c23 73 84 131 162 131c12 0 23 -2 23 -2v-125s-13 2 -31 2c-103 0 -149 -90 -149 -186v-111h73v-95h-274z" />
    <glyph glyph-name="s" unicode="s" horiz-adv-x="493" 
d="M35 111v59h108v-30c0 -35 47 -53 100 -53c51 0 87 18 87 52c0 43 -48 54 -116 79c-75 26 -161 61 -161 158c0 108 108 146 201 146c74 0 184 -29 184 -106v-65h-109v29c0 26 -30 42 -75 42c-40 0 -74 -14 -74 -46c0 -42 50 -59 107 -76c78 -25 170 -57 170 -157
c0 -103 -98 -155 -215 -155c-93 0 -207 40 -207 123z" />
    <glyph glyph-name="t" unicode="t" horiz-adv-x="381" 
d="M98 187v228h-78v95h82v139h123v-139h116v-95h-116v-215c0 -87 66 -99 102 -99c14 0 23 1 23 1v-104s-16 -3 -39 -3c-72 0 -213 21 -213 192z" />
    <glyph glyph-name="u" unicode="u" horiz-adv-x="677" 
d="M101 182v233h-79v95h206v-306c0 -61 16 -103 80 -103c88 0 141 90 141 182v132h-78v95h205v-394c0 -14 8 -22 22 -22h49v-94h-126c-45 0 -66 21 -66 57v19c0 13 1 24 1 24h-2c-6 -17 -58 -112 -186 -112c-102 0 -167 55 -167 194z" />
    <glyph glyph-name="v" unicode="v" horiz-adv-x="600" 
d="M10 415v95h245v-95h-57l88 -252c10 -26 13 -56 13 -56h3s3 30 12 56l89 252h-58v95h245v-95h-61l-156 -415h-146l-155 415h-62z" />
    <glyph glyph-name="w" unicode="w" horiz-adv-x="867" 
d="M12 415v95h245v-95h-61l67 -249c6 -25 8 -55 8 -55h3s2 30 8 55l96 343h112l95 -343c6 -25 8 -55 8 -55h3s2 30 8 55l68 249h-62v95h245v-95h-61l-118 -415h-144l-88 299c-7 26 -9 56 -9 56h-3s-2 -30 -9 -56l-87 -299h-144l-118 415h-62z" />
    <glyph glyph-name="x" unicode="x" horiz-adv-x="582" 
d="M39 0v95h73l112 165l-105 155h-78v95h157l79 -129c10 -17 19 -36 19 -36h2s9 19 20 36l80 129h146v-95h-71l-105 -152l116 -168h62v-95h-141l-90 143c-11 16 -20 36 -20 36h-2s-8 -19 -19 -37l-88 -142h-147z" />
    <glyph glyph-name="y" unicode="y" horiz-adv-x="606" 
d="M65 -82c0 0 30 -24 77 -24c41 0 74 22 90 59l14 32l-175 430h-61v95h251v-95h-60l93 -258c9 -25 11 -53 11 -53h3s4 28 14 53l92 258h-59v95h241v-95h-58l-188 -481c-39 -101 -115 -144 -202 -144c-74 0 -124 35 -124 35z" />
    <glyph glyph-name="z" unicode="z" horiz-adv-x="538" 
d="M46 81l258 305c15 18 29 29 29 29v2s-23 -2 -43 -2h-133v-74h-108v169h435v-82l-256 -304c-15 -18 -29 -29 -29 -29v-2s22 2 42 2h144v73h109v-168h-448v81z" />
    <glyph glyph-name="braceleft" unicode="{" horiz-adv-x="356" 
d="M115 71v97c0 100 -85 104 -85 104v111s85 4 85 106v86c0 152 120 169 177 169c18 0 31 -1 31 -1v-94s-8 1 -18 1c-27 0 -81 -9 -81 -85v-109c0 -100 -83 -127 -83 -127v-2s83 -23 83 -126v-120c0 -77 54 -85 81 -85c10 0 18 1 18 1v-94s-13 -2 -31 -2
c-57 0 -177 17 -177 170z" />
    <glyph glyph-name="bar" unicode="|" horiz-adv-x="287" 
d="M89 -161v957h109v-957h-109z" />
    <glyph glyph-name="braceright" unicode="}" horiz-adv-x="356" 
d="M33 -3c0 0 8 -1 18 -1c27 0 81 8 81 85v120c0 103 82 126 82 126v2s-82 27 -82 127v109c0 76 -54 85 -81 85c-10 0 -18 -1 -18 -1v94s13 1 31 1c56 0 177 -17 177 -169v-86c0 -102 85 -106 85 -106v-111s-85 -4 -85 -104v-97c0 -153 -121 -170 -177 -170
c-18 0 -31 2 -31 2v94z" />
    <glyph glyph-name="asciitilde" unicode="~" horiz-adv-x="617" 
d="M60 199c0 123 55 182 153 182c101 0 118 -91 184 -91c45 0 63 42 63 87h100c0 -123 -55 -182 -153 -182c-100 0 -117 90 -184 90c-44 0 -62 -41 -62 -86h-101z" />
    <glyph glyph-name="exclamdown" unicode="&#xa1;" horiz-adv-x="263" 
d="M69 390v119h124v-119h-124zM66 -200l10 504h111l10 -504h-131z" />
    <glyph glyph-name="cent" unicode="&#xa2;" horiz-adv-x="565" 
d="M248 -12v86c-126 21 -212 137 -212 281s86 260 212 282v84h86v-84c89 -16 158 -77 191 -162l-115 -44c-20 49 -58 89 -115 89c-78 0 -130 -69 -130 -165c0 -100 49 -165 130 -165c57 0 95 39 115 89l115 -44c-29 -72 -93 -149 -191 -161v-86h-86z" />
    <glyph glyph-name="sterling" unicode="&#xa3;" horiz-adv-x="622" 
d="M42 0v101h84v210h-70v87h70v121c0 118 95 203 227 203c108 0 179 -69 179 -69l-69 -86s-51 40 -107 40c-60 0 -99 -40 -99 -92v-117h170v-87h-170v-206h214v110h112v-215h-541z" />
    <glyph glyph-name="yen" unicode="&#xa5;" horiz-adv-x="642" 
d="M93 186v77h163v33l-26 48h-137v76h98l-154 290h147l93 -190c23 -55 43 -114 43 -114h2s20 59 43 114l93 190h147l-154 -290h98v-76h-137l-25 -48v-33h162v-77h-162v-186h-131v186h-163z" />
    <glyph glyph-name="section" unicode="&#xa7;" horiz-adv-x="470" 
d="M138 138l-73 344c-5 19 -7 39 -7 57c0 104 73 183 205 183c105 0 167 -62 167 -62l-57 -81s-46 39 -109 39c-58 0 -104 -27 -104 -94c0 -14 3 -31 8 -50l69 -336h-99zM39 -1l54 86s48 -44 113 -44c56 0 103 31 103 101c0 16 -3 35 -9 57l-67 323h99l72 -344
c5 -20 7 -39 7 -57c0 -105 -73 -183 -205 -183c-105 0 -167 61 -167 61z" />
    <glyph glyph-name="dieresis" unicode="&#xa8;" horiz-adv-x="493" 
d="M303 777v116h104v-116h-104zM86 777v116h104v-116h-104z" />
    <glyph glyph-name="copyright" unicode="&#xa9;" horiz-adv-x="797" 
d="M40 355c0 203 160 366 357 366c200 0 360 -163 360 -366s-160 -367 -360 -367c-197 0 -357 164 -357 367zM129 355c0 -160 117 -286 268 -286c154 0 272 126 272 286c0 159 -118 285 -272 285c-151 0 -268 -126 -268 -285zM215 353c0 106 77 195 187 195
c121 0 162 -105 162 -105l-76 -36s-26 58 -83 58c-60 0 -98 -50 -98 -112c0 -64 36 -112 98 -112c58 0 83 58 83 58l76 -35s-41 -106 -162 -106c-110 0 -187 89 -187 195z" />
    <glyph glyph-name="ordfeminine" unicode="&#xaa;" horiz-adv-x="422" 
d="M174 383c-53 0 -108 35 -108 98c0 107 134 110 186 110h8v7c0 39 -25 52 -57 52c-42 0 -82 -27 -82 -27l-33 59s47 38 128 38c88 0 134 -49 134 -130v-201h-83v44h-2s-26 -50 -91 -50zM197 453c37 0 63 37 63 72v7h-12c-34 0 -91 -5 -91 -45c0 -20 15 -34 40 -34zM67 266
v68h287v-68h-287z" />
    <glyph glyph-name="guillemotleft" unicode="&#xab;" horiz-adv-x="597" 
d="M262 282l164 206h121l-164 -206l164 -205h-121zM201 77l-164 205l164 206h121l-164 -206l164 -205h-121z" />
    <glyph glyph-name="logicalnot" unicode="&#xac;" horiz-adv-x="593" 
d="M42 339v98h488v-294h-102v196h-386z" />
    <glyph glyph-name="registered" unicode="&#xae;" horiz-adv-x="797" 
d="M40 355c0 203 160 366 357 366c200 0 360 -163 360 -366s-160 -367 -360 -367c-197 0 -357 164 -357 367zM129 355c0 -160 117 -286 268 -286c154 0 272 126 272 286c0 159 -118 285 -272 285c-151 0 -268 -126 -268 -285zM272 174v366h152c72 0 120 -46 120 -116
c0 -57 -39 -88 -65 -95v-2s4 -4 13 -21l69 -132h-94l-62 135h-48v-135h-85zM357 369h47c33 0 53 21 53 55c0 35 -20 54 -52 54h-48v-109z" />
    <glyph glyph-name="macron" unicode="&#xaf;" horiz-adv-x="493" 
d="M116 783v87h262v-87h-262z" />
    <glyph glyph-name="degree" unicode="&#xb0;" horiz-adv-x="402" 
d="M201 408c-91 0 -163 69 -163 157c0 86 72 158 163 158c90 0 164 -72 164 -158c0 -88 -74 -157 -164 -157zM201 499c37 0 67 29 67 66c0 36 -30 66 -67 66s-66 -30 -66 -66c0 -37 29 -66 66 -66z" />
    <glyph glyph-name="plusminus" unicode="&#xb1;" horiz-adv-x="619" 
d="M42 236v99h216v237h103v-237h216v-99h-216v-236h-103v236h-216zM56 -85h508v-98h-508v98z" />
    <glyph glyph-name="twosuperior" unicode="&#xb2;" horiz-adv-x="385" 
d="M32 467c0 164 210 178 210 265c0 31 -28 52 -60 52c-47 0 -80 -46 -80 -46l-63 55s50 79 151 79c86 0 148 -52 148 -131c0 -145 -200 -155 -208 -242h139v48h76v-124h-309s-4 28 -4 44z" />
    <glyph glyph-name="threesuperior" unicode="&#xb3;" horiz-adv-x="383" 
d="M43 737v125h292v-61l-102 -118c64 -12 112 -51 112 -121c0 -77 -61 -149 -162 -149c-103 0 -152 67 -152 67l49 64s34 -47 98 -47c39 0 71 26 71 63c0 38 -38 57 -77 57h-32l-19 45l86 105c11 12 23 21 23 21v4s-16 -4 -32 -4h-78v-51h-77z" />
    <glyph glyph-name="acute" unicode="&#xb4;" horiz-adv-x="493" 
d="M126 757l108 136h138l-135 -136h-111z" />
    <glyph glyph-name="mu" unicode="&#xb5;" horiz-adv-x="609" 
d="M67 -200v710h127v-302c0 -62 16 -104 79 -104c92 0 143 81 143 172v234h126v-510h-122v62c0 14 2 32 2 32h-2s-45 -106 -176 -106c-51 0 -72 21 -72 21h-2s7 -49 7 -83v-126h-110z" />
    <glyph glyph-name="mu" unicode="&#x3bc;" horiz-adv-x="609" 
d="M67 -200v710h127v-302c0 -62 16 -104 79 -104c92 0 143 81 143 172v234h126v-510h-122v62c0 14 2 32 2 32h-2s-45 -106 -176 -106c-51 0 -72 21 -72 21h-2s7 -49 7 -83v-126h-110z" />
    <glyph glyph-name="paragraph" unicode="&#xb6;" horiz-adv-x="621" 
d="M266 -50v291c-129 0 -235 103 -235 235s106 234 235 234h305v-111h-212v-649h-93zM421 -50v594h92v-594h-92z" />
    <glyph glyph-name="periodcentered" unicode="&#xb7;" horiz-adv-x="282" 
d="M79 228v128h124v-128h-124z" />
    <glyph glyph-name="cedilla" unicode="&#xb8;" horiz-adv-x="493" 
d="M174 -100l37 127l59 -13v-8l-17 -60c46 -3 85 -32 85 -79c0 -65 -62 -90 -122 -90c-32 0 -60 7 -60 7v62s20 -7 46 -7c22 0 50 5 50 30c0 23 -28 31 -58 31h-20z" />
    <glyph glyph-name="onesuperior" unicode="&#xb9;" horiz-adv-x="354" 
d="M39 423v76h101v210c0 19 3 31 3 31h-2s-5 -9 -16 -18l-41 -39l-56 61l124 118h83v-363h101v-76h-297z" />
    <glyph glyph-name="ordmasculine" unicode="&#xba;" horiz-adv-x="465" 
d="M233 384c-97 0 -176 70 -176 169c0 98 79 167 175 167c98 0 176 -69 176 -167c0 -99 -78 -169 -175 -169zM233 464c46 0 84 36 84 89c0 52 -38 88 -84 88c-47 0 -85 -36 -85 -88c0 -53 38 -89 85 -89zM72 266v68h322v-68h-322z" />
    <glyph glyph-name="guillemotright" unicode="&#xbb;" horiz-adv-x="596" 
d="M275 77l164 205l-164 206h120l164 -206l-164 -205h-120zM50 77l164 205l-164 206h121l164 -206l-164 -205h-121z" />
    <glyph glyph-name="onequarter" unicode="&#xbc;" horiz-adv-x="980" 
d="M795 0v102h-203v61l189 276h108v-265h58v-72h-58v-102h-94zM681 174h114v130c0 21 5 47 5 47h-4s-8 -24 -20 -42l-95 -133v-2zM275 0l336 710h92l-336 -710h-92zM55 271v76h101v210c0 19 3 31 3 31h-2s-5 -9 -16 -18l-41 -39l-56 61l124 118h83v-363h101v-76h-297z" />
    <glyph glyph-name="foursuperior" unicode="&#x2074;" horiz-adv-x="403" 
d="M223 423v102h-203v61l189 276h108v-265h58v-72h-58v-102h-94zM109 597h114v130c0 21 5 47 5 47h-4s-8 -24 -20 -42l-95 -133v-2z" />
    <glyph glyph-name="fraction" unicode="&#x2044;" horiz-adv-x="149" 
d="M-139 0l336 710h92l-336 -710h-92z" />
    <glyph glyph-name="onehalf" unicode="&#xbd;" horiz-adv-x="968" 
d="M614 44c0 164 210 178 210 265c0 31 -28 52 -60 52c-47 0 -80 -46 -80 -46l-63 55s50 79 151 79c86 0 148 -52 148 -131c0 -145 -200 -155 -208 -242h139v48h76v-124h-309s-4 28 -4 44zM272 0l336 710h92l-336 -710h-92zM49 271v76h101v210c0 19 3 31 3 31h-2
s-5 -9 -16 -18l-41 -39l-56 61l124 118h83v-363h101v-76h-297z" />
    <glyph glyph-name="threequarters" unicode="&#xbe;" horiz-adv-x="986" 
d="M800 0v102h-203v61l189 276h108v-265h58v-72h-58v-102h-94zM686 174h114v130c0 21 5 47 5 47h-4s-8 -24 -20 -42l-95 -133v-2zM54 585v125h292v-61l-102 -118c64 -12 112 -51 112 -121c0 -77 -61 -149 -162 -149c-103 0 -152 67 -152 67l49 64s34 -47 98 -47
c39 0 71 26 71 63c0 38 -38 57 -77 57h-32l-19 45l86 105c11 12 23 21 23 21v4s-16 -4 -32 -4h-78v-51h-77zM280 0l336 710h92l-336 -710h-92z" />
    <glyph glyph-name="questiondown" unicode="&#xbf;" horiz-adv-x="482" 
d="M218 391v119h123v-119h-123zM44 -22c0 164 175 184 175 292v35h122v-44c0 -145 -165 -169 -165 -271c0 -47 43 -84 98 -84c57 0 106 43 106 43l70 -88s-69 -71 -187 -71c-114 0 -219 69 -219 188z" />
    <glyph glyph-name="Agrave" unicode="&#xc0;" horiz-adv-x="725" 
d="M10 0v98h65l213 612h149l213 -612h65v-98h-267v98h70l-44 133h-224l-44 -133h70v-98h-266zM280 333h164l-67 201c-11 35 -13 62 -13 62h-3s-3 -27 -13 -62zM322 757l-135 136h137l109 -136h-111z" />
    <glyph glyph-name="Aacute" unicode="&#xc1;" horiz-adv-x="729" 
d="M12 0v98h65l213 612h149l213 -612h65v-98h-267v98h70l-44 133h-224l-44 -133h70v-98h-266zM282 333h164l-67 201c-11 35 -13 62 -13 62h-3s-3 -27 -13 -62zM291 757l108 136h138l-135 -136h-111z" />
    <glyph glyph-name="Acircumflex" unicode="&#xc2;" horiz-adv-x="729" 
d="M12 0v98h65l213 612h149l213 -612h65v-98h-267v98h70l-44 133h-224l-44 -133h70v-98h-266zM282 333h164l-67 201c-11 35 -13 62 -13 62h-3s-3 -27 -13 -62zM206 757l92 136h130l92 -136h-106l-50 81h-2l-50 -81h-106z" />
    <glyph glyph-name="circumflex" unicode="&#x2c6;" horiz-adv-x="494" 
d="M90 757l92 136h130l92 -136h-106l-50 81h-2l-50 -81h-106z" />
    <glyph glyph-name="Atilde" unicode="&#xc3;" horiz-adv-x="729" 
d="M12 0v98h65l213 612h149l213 -612h65v-98h-267v98h70l-44 133h-224l-44 -133h70v-98h-266zM282 333h164l-67 201c-11 35 -13 62 -13 62h-3s-3 -27 -13 -62zM181 758c0 91 37 137 112 137c70 0 87 -64 127 -64c29 0 39 29 39 61h88c0 -90 -38 -137 -113 -137
c-70 0 -87 64 -127 64c-28 0 -38 -28 -38 -61h-88z" />
    <glyph glyph-name="tilde" unicode="&#x2dc;" horiz-adv-x="493" 
d="M64 758c0 91 37 137 112 137c70 0 87 -64 127 -64c29 0 39 29 39 61h88c0 -90 -38 -137 -113 -137c-70 0 -87 64 -127 64c-28 0 -38 -28 -38 -61h-88z" />
    <glyph glyph-name="Adieresis" unicode="&#xc4;" horiz-adv-x="729" 
d="M12 0v98h65l213 612h149l213 -612h65v-98h-267v98h70l-44 133h-224l-44 -133h70v-98h-266zM282 333h164l-67 201c-11 35 -13 62 -13 62h-3s-3 -27 -13 -62zM420 777v116h104v-116h-104zM203 777v116h104v-116h-104z" />
    <glyph glyph-name="Aring" unicode="&#xc5;" horiz-adv-x="729" 
d="M12 0v98h65l213 612h149l213 -612h65v-98h-267v98h70l-44 133h-224l-44 -133h70v-98h-266zM282 333h164l-67 201c-11 35 -13 62 -13 62h-3s-3 -27 -13 -62zM364 742c-51 0 -102 29 -102 85s51 86 102 86c52 0 103 -30 103 -86s-51 -85 -103 -85zM364 790
c23 0 37 15 37 37c0 24 -14 39 -37 39c-21 0 -36 -15 -36 -39c0 -22 14 -37 36 -37z" />
    <glyph glyph-name="ring" unicode="&#x2da;" horiz-adv-x="494" 
d="M247 742c-51 0 -102 29 -102 85s51 86 102 86c52 0 103 -30 103 -86s-51 -85 -103 -85zM247 790c23 0 37 15 37 37c0 24 -14 39 -37 39c-21 0 -36 -15 -36 -39c0 -22 14 -37 36 -37z" />
    <glyph glyph-name="AE" unicode="&#xc6;" horiz-adv-x="961" 
d="M12 0v98h59l213 513h-75v99h689v-183h-105v78h-202v-195h231v-105h-231v-200h217v78h105v-183h-537v98h84v209h-175l-83 -209h72v-98h-262zM324 406h136v199h-56z" />
    <glyph glyph-name="Ccedilla" unicode="&#xc7;" horiz-adv-x="745" 
d="M338 -100l26 91c-189 22 -321 176 -321 367c0 210 160 364 366 364c86 0 277 -30 277 -142v-96h-119v55c0 53 -94 71 -152 71c-137 0 -237 -96 -237 -246c0 -160 104 -264 244 -264c43 0 154 14 154 70v55h119v-97c0 -101 -166 -137 -267 -140l-11 -42
c46 -3 85 -32 85 -79c0 -65 -62 -90 -122 -90c-32 0 -60 7 -60 7v62s20 -7 46 -7c22 0 50 5 50 30c0 23 -28 31 -58 31h-20z" />
    <glyph glyph-name="Egrave" unicode="&#xc8;" horiz-adv-x="640" 
d="M50 0v98h85v513h-85v99h527v-183h-112v78h-199v-195h234v-105h-234v-200h214v80h112v-185h-542zM292 757l-135 136h137l109 -136h-111z" />
    <glyph glyph-name="Eacute" unicode="&#xc9;" horiz-adv-x="640" 
d="M259 757l108 136h138l-135 -136h-111zM50 0v98h85v513h-85v99h527v-183h-112v78h-199v-195h234v-105h-234v-200h214v80h112v-185h-542z" />
    <glyph glyph-name="Ecircumflex" unicode="&#xca;" horiz-adv-x="640" 
d="M174 757l92 136h130l92 -136h-106l-50 81h-2l-50 -81h-106zM50 0v98h85v513h-85v99h527v-183h-112v78h-199v-195h234v-105h-234v-200h214v80h112v-185h-542z" />
    <glyph glyph-name="Edieresis" unicode="&#xcb;" horiz-adv-x="640" 
d="M388 777v116h104v-116h-104zM171 777v116h104v-116h-104zM50 0v98h85v513h-85v99h527v-183h-112v78h-199v-195h234v-105h-234v-200h214v80h112v-185h-542z" />
    <glyph glyph-name="Igrave" unicode="&#xcc;" horiz-adv-x="403" 
d="M50 0v98h85v513h-85v99h302v-99h-86v-513h86v-98h-302zM162 757l-135 136h137l109 -136h-111z" />
    <glyph glyph-name="Iacute" unicode="&#xcd;" horiz-adv-x="403" 
d="M50 0v98h85v513h-85v99h302v-99h-86v-513h86v-98h-302zM129 757l108 136h138l-135 -136h-111z" />
    <glyph glyph-name="Icircumflex" unicode="&#xce;" horiz-adv-x="403" 
d="M50 0v98h85v513h-85v99h302v-99h-86v-513h86v-98h-302zM44 757l92 136h130l92 -136h-106l-50 81h-2l-50 -81h-106z" />
    <glyph glyph-name="Idieresis" unicode="&#xcf;" horiz-adv-x="403" 
d="M50 0v98h85v513h-85v99h302v-99h-86v-513h86v-98h-302zM258 777v116h104v-116h-104zM41 777v116h104v-116h-104z" />
    <glyph glyph-name="Eth" unicode="&#xd0;" horiz-adv-x="788" 
d="M50 0v98h85v203h-73v105h73v205h-85v99h329c220 0 363 -130 363 -354s-143 -356 -363 -356h-329zM266 105h106c142 0 234 87 234 251c0 162 -94 249 -234 249h-106v-199h139v-105h-139v-196z" />
    <glyph glyph-name="Ntilde" unicode="&#xd1;" horiz-adv-x="847" 
d="M50 0v98h85v513h-85v99h216l299 -457c14 -23 26 -60 26 -60h3s-5 41 -4 67v351h-88v99h304v-99h-85v-611h-131l-299 455c-14 24 -26 60 -26 60h-4s6 -40 5 -66v-351h88v-98h-304zM244 758c0 91 37 137 112 137c70 0 87 -64 127 -64c29 0 39 29 39 61h88
c0 -90 -38 -137 -113 -137c-70 0 -87 64 -127 64c-28 0 -38 -28 -38 -61h-88z" />
    <glyph glyph-name="Ograve" unicode="&#xd2;" horiz-adv-x="820" 
d="M42 360c0 203 158 362 368 362s368 -159 368 -362c0 -209 -158 -372 -368 -372s-368 163 -368 372zM177 360c0 -146 105 -257 233 -257s233 111 233 257c0 140 -105 247 -233 247s-233 -107 -233 -247zM371 757l-135 136h137l109 -136h-111z" />
    <glyph glyph-name="Oacute" unicode="&#xd3;" horiz-adv-x="820" 
d="M338 757l108 136h138l-135 -136h-111zM42 360c0 203 158 362 368 362s368 -159 368 -362c0 -209 -158 -372 -368 -372s-368 163 -368 372zM177 360c0 -146 105 -257 233 -257s233 111 233 257c0 140 -105 247 -233 247s-233 -107 -233 -247z" />
    <glyph glyph-name="Ocircumflex" unicode="&#xd4;" horiz-adv-x="820" 
d="M253 757l92 136h130l92 -136h-106l-50 81h-2l-50 -81h-106zM42 360c0 203 158 362 368 362s368 -159 368 -362c0 -209 -158 -372 -368 -372s-368 163 -368 372zM177 360c0 -146 105 -257 233 -257s233 111 233 257c0 140 -105 247 -233 247s-233 -107 -233 -247z" />
    <glyph glyph-name="Otilde" unicode="&#xd5;" horiz-adv-x="820" 
d="M42 360c0 203 158 362 368 362s368 -159 368 -362c0 -209 -158 -372 -368 -372s-368 163 -368 372zM177 360c0 -146 105 -257 233 -257s233 111 233 257c0 140 -105 247 -233 247s-233 -107 -233 -247zM228 758c0 91 37 137 112 137c70 0 87 -64 127 -64
c29 0 39 29 39 61h88c0 -90 -38 -137 -113 -137c-70 0 -87 64 -127 64c-28 0 -38 -28 -38 -61h-88z" />
    <glyph glyph-name="Odieresis" unicode="&#xd6;" horiz-adv-x="820" 
d="M467 777v116h104v-116h-104zM250 777v116h104v-116h-104zM42 360c0 203 158 362 368 362s368 -159 368 -362c0 -209 -158 -372 -368 -372s-368 163 -368 372zM177 360c0 -146 105 -257 233 -257s233 111 233 257c0 140 -105 247 -233 247s-233 -107 -233 -247z" />
    <glyph glyph-name="multiply" unicode="&#xd7;" horiz-adv-x="619" 
d="M45 69l197 217l-197 216l70 70l194 -214l195 214l70 -70l-198 -216l198 -217l-70 -69l-195 214l-194 -214z" />
    <glyph glyph-name="Oslash" unicode="&#xd8;" horiz-adv-x="818" 
d="M114 13l49 68c-75 67 -121 166 -121 279c0 203 159 362 367 362c68 0 129 -17 182 -46l44 60l57 -39l-43 -60c79 -66 127 -165 127 -277c0 -209 -158 -372 -367 -372c-71 0 -135 18 -190 52l-47 -66zM239 186l280 389c-33 18 -70 29 -110 29c-129 0 -234 -104 -234 -244
c0 -69 24 -130 64 -174zM291 140c34 -22 75 -34 118 -34c130 0 234 108 234 254c0 69 -26 130 -69 173z" />
    <glyph glyph-name="Ugrave" unicode="&#xd9;" horiz-adv-x="809" 
d="M116 267v344h-85v99h302v-99h-86v-344c0 -40 9 -76 24 -101c25 -40 74 -63 134 -63c59 0 107 22 133 64c16 27 24 60 24 101v343h-85v99h301v-99h-85v-344c0 -69 -19 -133 -52 -178c-52 -68 -141 -101 -236 -101c-101 0 -187 37 -236 100c-37 46 -53 108 -53 179z
M365 757l-135 136h137l109 -136h-111z" />
    <glyph glyph-name="Uacute" unicode="&#xda;" horiz-adv-x="809" 
d="M333 757l108 136h138l-135 -136h-111zM116 267v344h-85v99h302v-99h-86v-344c0 -40 9 -76 24 -101c25 -40 74 -63 134 -63c59 0 107 22 133 64c16 27 24 60 24 101v343h-85v99h301v-99h-85v-344c0 -69 -19 -133 -52 -178c-52 -68 -141 -101 -236 -101
c-101 0 -187 37 -236 100c-37 46 -53 108 -53 179z" />
    <glyph glyph-name="Ucircumflex" unicode="&#xdb;" horiz-adv-x="809" 
d="M248 757l92 136h130l92 -136h-106l-50 81h-2l-50 -81h-106zM116 267v344h-85v99h302v-99h-86v-344c0 -40 9 -76 24 -101c25 -40 74 -63 134 -63c59 0 107 22 133 64c16 27 24 60 24 101v343h-85v99h301v-99h-85v-344c0 -69 -19 -133 -52 -178
c-52 -68 -141 -101 -236 -101c-101 0 -187 37 -236 100c-37 46 -53 108 -53 179z" />
    <glyph glyph-name="Udieresis" unicode="&#xdc;" horiz-adv-x="809" 
d="M461 777v116h104v-116h-104zM244 777v116h104v-116h-104zM116 267v344h-85v99h302v-99h-86v-344c0 -40 9 -76 24 -101c25 -40 74 -63 134 -63c59 0 107 22 133 64c16 27 24 60 24 101v343h-85v99h301v-99h-85v-344c0 -69 -19 -133 -52 -178c-52 -68 -141 -101 -236 -101
c-101 0 -187 37 -236 100c-37 46 -53 108 -53 179z" />
    <glyph glyph-name="Yacute" unicode="&#xdd;" horiz-adv-x="658" 
d="M178 0v98h86v199l-189 314h-65v99h264v-99h-69l108 -186c10 -17 15 -32 15 -32h2s6 15 16 32l108 186h-68v99h262v-99h-64l-189 -314v-199h85v-98h-302zM259 757l108 136h138l-135 -136h-111z" />
    <glyph glyph-name="Thorn" unicode="&#xde;" horiz-adv-x="658" 
d="M50 0v98h85v513h-85v99h302v-99h-88v-61h156c133 0 215 -71 215 -186c0 -117 -82 -191 -215 -191h-156v-75h88v-98h-302zM264 271h125c76 0 115 33 115 93c0 59 -39 88 -113 88h-127v-181z" />
    <glyph glyph-name="germandbls" unicode="&#xdf;" horiz-adv-x="638" 
d="M29 0v95h74v434c0 126 114 193 231 193c115 0 206 -74 206 -174c0 -91 -89 -118 -89 -176s161 -91 161 -218c0 -108 -86 -161 -180 -161c-91 0 -134 26 -134 26v108s52 -26 116 -26c37 0 71 16 71 60c0 67 -162 99 -162 208c0 79 89 112 89 177c0 35 -28 68 -82 68
c-51 0 -100 -28 -100 -94v-520h-201z" />
    <glyph glyph-name="agrave" unicode="&#xe0;" horiz-adv-x="565" 
d="M28 143c0 156 205 172 287 172h32v17c0 65 -41 88 -94 88c-76 0 -144 -49 -144 -49l-47 88s79 63 202 63c137 0 210 -71 210 -201v-204c0 -15 8 -22 22 -22h46v-95h-120c-47 0 -65 25 -65 54v6c0 16 3 26 3 26h-2s-43 -98 -161 -98c-87 0 -169 51 -169 155zM156 153
c0 -38 27 -70 74 -70c69 0 118 74 118 138v17h-21c-50 0 -171 -8 -171 -85zM229 573l-135 136h137l109 -136h-111z" />
    <glyph glyph-name="aacute" unicode="&#xe1;" horiz-adv-x="565" 
d="M28 143c0 156 205 172 287 172h32v17c0 65 -41 88 -94 88c-76 0 -144 -49 -144 -49l-47 88s79 63 202 63c137 0 210 -71 210 -201v-204c0 -15 8 -22 22 -22h46v-95h-120c-47 0 -65 25 -65 54v6c0 16 3 26 3 26h-2s-43 -98 -161 -98c-87 0 -169 51 -169 155zM156 153
c0 -38 27 -70 74 -70c69 0 118 74 118 138v17h-21c-50 0 -171 -8 -171 -85zM196 573l108 136h138l-135 -136h-111z" />
    <glyph glyph-name="acircumflex" unicode="&#xe2;" horiz-adv-x="565" 
d="M28 143c0 156 205 172 287 172h32v17c0 65 -41 88 -94 88c-76 0 -144 -49 -144 -49l-47 88s79 63 202 63c137 0 210 -71 210 -201v-204c0 -15 8 -22 22 -22h46v-95h-120c-47 0 -65 25 -65 54v6c0 16 3 26 3 26h-2s-43 -98 -161 -98c-87 0 -169 51 -169 155zM156 153
c0 -38 27 -70 74 -70c69 0 118 74 118 138v17h-21c-50 0 -171 -8 -171 -85zM111 573l92 136h130l92 -136h-106l-50 81h-2l-50 -81h-106z" />
    <glyph glyph-name="atilde" unicode="&#xe3;" horiz-adv-x="565" 
d="M28 143c0 156 205 172 287 172h32v17c0 65 -41 88 -94 88c-76 0 -144 -49 -144 -49l-47 88s79 63 202 63c137 0 210 -71 210 -201v-204c0 -15 8 -22 22 -22h46v-95h-120c-47 0 -65 25 -65 54v6c0 16 3 26 3 26h-2s-43 -98 -161 -98c-87 0 -169 51 -169 155zM156 153
c0 -38 27 -70 74 -70c69 0 118 74 118 138v17h-21c-50 0 -171 -8 -171 -85zM86 574c0 91 37 137 112 137c70 0 87 -64 127 -64c29 0 39 29 39 61h88c0 -90 -38 -137 -113 -137c-70 0 -87 64 -127 64c-28 0 -38 -28 -38 -61h-88z" />
    <glyph glyph-name="adieresis" unicode="&#xe4;" horiz-adv-x="565" 
d="M28 143c0 156 205 172 287 172h32v17c0 65 -41 88 -94 88c-76 0 -144 -49 -144 -49l-47 88s79 63 202 63c137 0 210 -71 210 -201v-204c0 -15 8 -22 22 -22h46v-95h-120c-47 0 -65 25 -65 54v6c0 16 3 26 3 26h-2s-43 -98 -161 -98c-87 0 -169 51 -169 155zM156 153
c0 -38 27 -70 74 -70c69 0 118 74 118 138v17h-21c-50 0 -171 -8 -171 -85zM325 593v116h104v-116h-104zM108 593v116h104v-116h-104z" />
    <glyph glyph-name="aring" unicode="&#xe5;" horiz-adv-x="565" 
d="M28 143c0 156 205 172 287 172h32v17c0 65 -41 88 -94 88c-76 0 -144 -49 -144 -49l-47 88s79 63 202 63c137 0 210 -71 210 -201v-204c0 -15 8 -22 22 -22h46v-95h-120c-47 0 -65 25 -65 54v6c0 16 3 26 3 26h-2s-43 -98 -161 -98c-87 0 -169 51 -169 155zM156 153
c0 -38 27 -70 74 -70c69 0 118 74 118 138v17h-21c-50 0 -171 -8 -171 -85zM269 558c-51 0 -102 29 -102 85s51 86 102 86c52 0 103 -30 103 -86s-51 -85 -103 -85zM269 606c23 0 37 15 37 37c0 24 -14 39 -37 39c-21 0 -36 -15 -36 -39c0 -22 14 -37 36 -37z" />
    <glyph glyph-name="ae" unicode="&#xe6;" horiz-adv-x="856" 
d="M28 145c0 156 199 168 299 168h20v14c0 72 -40 93 -95 93c-76 0 -145 -49 -145 -49l-47 88s80 63 203 63c86 0 132 -29 160 -75h2c40 49 97 75 170 75c142 0 225 -107 225 -243c0 -15 -3 -42 -3 -42h-349c9 -98 73 -145 150 -145c82 0 147 56 147 56l49 -87
s-78 -73 -205 -73c-101 0 -172 43 -213 112h-2c-11 -24 -65 -111 -192 -111c-94 0 -174 57 -174 156zM472 313h220c-2 67 -46 110 -98 110c-65 0 -108 -40 -122 -110zM153 151c0 -35 27 -66 76 -66c69 0 119 72 119 136v15h-35c-69 0 -160 -14 -160 -85z" />
    <glyph glyph-name="ccedilla" unicode="&#xe7;" horiz-adv-x="558" 
d="M233 -100l26 93c-124 21 -225 116 -225 261c0 152 117 268 274 268c85 0 209 -32 209 -122v-70h-110v34c0 34 -52 50 -95 50c-93 0 -150 -64 -150 -157c0 -105 73 -162 160 -162c72 0 131 40 159 62l45 -90c-34 -32 -109 -76 -203 -79l-11 -42c46 -3 85 -32 85 -79
c0 -65 -62 -90 -122 -90c-32 0 -60 7 -60 7v62s20 -7 46 -7c21 0 49 5 49 30c0 23 -27 31 -57 31h-20z" />
    <glyph glyph-name="egrave" unicode="&#xe8;" horiz-adv-x="558" 
d="M35 255c0 157 106 267 259 267c147 0 227 -107 227 -242c0 -15 -3 -43 -3 -43h-353c8 -94 76 -142 153 -142c83 0 148 54 148 54l49 -90s-78 -71 -206 -71c-169 0 -274 122 -274 267zM168 312h222c-2 70 -45 112 -99 112c-65 0 -111 -45 -123 -112zM254 573l-135 136h137
l109 -136h-111z" />
    <glyph glyph-name="eacute" unicode="&#xe9;" horiz-adv-x="558" 
d="M221 573l108 136h138l-135 -136h-111zM35 255c0 157 106 267 259 267c147 0 227 -107 227 -242c0 -15 -3 -43 -3 -43h-353c8 -94 76 -142 153 -142c83 0 148 54 148 54l49 -90s-78 -71 -206 -71c-169 0 -274 122 -274 267zM168 312h222c-2 70 -45 112 -99 112
c-65 0 -111 -45 -123 -112z" />
    <glyph glyph-name="ecircumflex" unicode="&#xea;" horiz-adv-x="558" 
d="M136 573l92 136h130l92 -136h-106l-50 81h-2l-50 -81h-106zM35 255c0 157 106 267 259 267c147 0 227 -107 227 -242c0 -15 -3 -43 -3 -43h-353c8 -94 76 -142 153 -142c83 0 148 54 148 54l49 -90s-78 -71 -206 -71c-169 0 -274 122 -274 267zM168 312h222
c-2 70 -45 112 -99 112c-65 0 -111 -45 -123 -112z" />
    <glyph glyph-name="edieresis" unicode="&#xeb;" horiz-adv-x="558" 
d="M350 593v116h104v-116h-104zM133 593v116h104v-116h-104zM35 255c0 157 106 267 259 267c147 0 227 -107 227 -242c0 -15 -3 -43 -3 -43h-353c8 -94 76 -142 153 -142c83 0 148 54 148 54l49 -90s-78 -71 -206 -71c-169 0 -274 122 -274 267zM168 312h222
c-2 70 -45 112 -99 112c-65 0 -111 -45 -123 -112z" />
    <glyph glyph-name="igrave" unicode="&#xec;" horiz-adv-x="343" 
d="M46 0v95h70v320h-74v95h201v-415h70v-95h-267zM139 573l-135 136h137l109 -136h-111z" />
    <glyph glyph-name="dotlessi" unicode="&#x131;" horiz-adv-x="343" 
d="M46 0v95h70v320h-74v95h201v-415h70v-95h-267z" />
    <glyph glyph-name="iacute" unicode="&#xed;" horiz-adv-x="343" 
d="M107 573l108 136h138l-135 -136h-111zM46 0v95h70v320h-74v95h201v-415h70v-95h-267z" />
    <glyph glyph-name="icircumflex" unicode="&#xee;" horiz-adv-x="343" 
d="M22 573l92 136h130l92 -136h-106l-50 81h-2l-50 -81h-106zM46 0v95h70v320h-74v95h201v-415h70v-95h-267z" />
    <glyph glyph-name="idieresis" unicode="&#xef;" horiz-adv-x="343" 
d="M46 0v95h70v320h-74v95h201v-415h70v-95h-267zM217 593v117h104v-117h-104zM28 593v117h103v-117h-103z" />
    <glyph glyph-name="eth" unicode="&#xf0;" horiz-adv-x="592" 
d="M37 237c0 118 84 228 234 228c64 0 102 -29 102 -29h2c-18 42 -55 84 -97 110l-181 -77l-6 61l119 52c-37 18 -87 35 -124 44l35 100c77 -17 160 -48 225 -87l140 61l6 -62l-92 -40c82 -73 141 -181 141 -320c0 -136 -71 -290 -260 -290c-156 0 -244 122 -244 249z
M165 234c0 -70 38 -139 118 -139c93 0 130 85 130 160c0 64 -46 111 -119 111c-88 0 -129 -65 -129 -132z" />
    <glyph glyph-name="ntilde" unicode="&#xf1;" horiz-adv-x="697" 
d="M46 0v95h74v298c0 14 -8 22 -22 22h-57v95h134c45 0 66 -21 66 -57v-23c0 -11 -2 -22 -2 -22h2c6 16 60 114 188 114c109 0 171 -59 171 -194v-233h74v-95h-200v302c0 62 -17 104 -81 104c-92 0 -146 -88 -146 -177v-134h73v-95h-274zM184 574c0 91 37 137 112 137
c70 0 87 -64 127 -64c29 0 39 29 39 61h88c0 -90 -38 -137 -113 -137c-70 0 -87 64 -127 64c-28 0 -38 -28 -38 -61h-88z" />
    <glyph glyph-name="ograve" unicode="&#xf2;" horiz-adv-x="629" 
d="M34 255c0 156 125 267 280 267c156 0 281 -111 281 -267c0 -157 -125 -267 -280 -267c-156 0 -281 110 -281 267zM163 255c0 -95 69 -159 152 -159c82 0 151 64 151 159c0 94 -69 159 -151 159c-83 0 -152 -65 -152 -159zM275 573l-135 136h137l109 -136h-111z" />
    <glyph glyph-name="oacute" unicode="&#xf3;" horiz-adv-x="629" 
d="M243 573l108 136h138l-135 -136h-111zM34 255c0 156 125 267 280 267c156 0 281 -111 281 -267c0 -157 -125 -267 -280 -267c-156 0 -281 110 -281 267zM163 255c0 -95 69 -159 152 -159c82 0 151 64 151 159c0 94 -69 159 -151 159c-83 0 -152 -65 -152 -159z" />
    <glyph glyph-name="ocircumflex" unicode="&#xf4;" horiz-adv-x="629" 
d="M158 573l92 136h130l92 -136h-106l-50 81h-2l-50 -81h-106zM34 255c0 156 125 267 280 267c156 0 281 -111 281 -267c0 -157 -125 -267 -280 -267c-156 0 -281 110 -281 267zM163 255c0 -95 69 -159 152 -159c82 0 151 64 151 159c0 94 -69 159 -151 159
c-83 0 -152 -65 -152 -159z" />
    <glyph glyph-name="otilde" unicode="&#xf5;" horiz-adv-x="629" 
d="M34 255c0 156 125 267 280 267c156 0 281 -111 281 -267c0 -157 -125 -267 -280 -267c-156 0 -281 110 -281 267zM163 255c0 -95 69 -159 152 -159c82 0 151 64 151 159c0 94 -69 159 -151 159c-83 0 -152 -65 -152 -159zM132 574c0 91 37 137 112 137
c70 0 87 -64 127 -64c29 0 39 29 39 61h88c0 -90 -38 -137 -113 -137c-70 0 -87 64 -127 64c-28 0 -38 -28 -38 -61h-88z" />
    <glyph glyph-name="odieresis" unicode="&#xf6;" horiz-adv-x="629" 
d="M371 593v116h104v-116h-104zM154 593v116h104v-116h-104zM34 255c0 156 125 267 280 267c156 0 281 -111 281 -267c0 -157 -125 -267 -280 -267c-156 0 -281 110 -281 267zM163 255c0 -95 69 -159 152 -159c82 0 151 64 151 159c0 94 -69 159 -151 159
c-83 0 -152 -65 -152 -159z" />
    <glyph glyph-name="divide" unicode="&#xf7;" horiz-adv-x="619" 
d="M252 437v108h115v-108h-115zM49 236v99h521v-99h-521zM252 27v108h115v-108h-115z" />
    <glyph glyph-name="oslash" unicode="&#xf8;" horiz-adv-x="628" 
d="M94 -5l38 53c-59 48 -98 121 -98 207c0 156 125 267 280 267c48 0 96 -13 136 -33l40 57l50 -35l-40 -54c57 -48 95 -120 95 -202c0 -157 -126 -267 -281 -267c-46 0 -91 11 -129 29l-41 -58zM204 147l179 250c-20 9 -45 17 -69 17c-83 0 -151 -65 -151 -159
c0 -43 17 -81 41 -108zM252 110c18 -8 41 -14 62 -14c83 0 152 64 152 159c0 39 -16 75 -37 101z" />
    <glyph glyph-name="ugrave" unicode="&#xf9;" horiz-adv-x="677" 
d="M101 182v233h-79v95h206v-306c0 -61 16 -103 80 -103c88 0 141 90 141 182v132h-78v95h205v-394c0 -14 8 -22 22 -22h49v-94h-126c-45 0 -66 21 -66 57v19c0 13 1 24 1 24h-2c-6 -17 -58 -112 -186 -112c-102 0 -167 55 -167 194zM285 573l-135 136h137l109 -136h-111z
" />
    <glyph glyph-name="uacute" unicode="&#xfa;" horiz-adv-x="677" 
d="M253 573l108 136h138l-135 -136h-111zM101 182v233h-79v95h206v-306c0 -61 16 -103 80 -103c88 0 141 90 141 182v132h-78v95h205v-394c0 -14 8 -22 22 -22h49v-94h-126c-45 0 -66 21 -66 57v19c0 13 1 24 1 24h-2c-6 -17 -58 -112 -186 -112c-102 0 -167 55 -167 194z
" />
    <glyph glyph-name="ucircumflex" unicode="&#xfb;" horiz-adv-x="677" 
d="M168 573l92 136h130l92 -136h-106l-50 81h-2l-50 -81h-106zM101 182v233h-79v95h206v-306c0 -61 16 -103 80 -103c88 0 141 90 141 182v132h-78v95h205v-394c0 -14 8 -22 22 -22h49v-94h-126c-45 0 -66 21 -66 57v19c0 13 1 24 1 24h-2c-6 -17 -58 -112 -186 -112
c-102 0 -167 55 -167 194z" />
    <glyph glyph-name="udieresis" unicode="&#xfc;" horiz-adv-x="677" 
d="M381 593v116h104v-116h-104zM164 593v116h104v-116h-104zM101 182v233h-79v95h206v-306c0 -61 16 -103 80 -103c88 0 141 90 141 182v132h-78v95h205v-394c0 -14 8 -22 22 -22h49v-94h-126c-45 0 -66 21 -66 57v19c0 13 1 24 1 24h-2c-6 -17 -58 -112 -186 -112
c-102 0 -167 55 -167 194z" />
    <glyph glyph-name="yacute" unicode="&#xfd;" horiz-adv-x="606" 
d="M65 -82c0 0 30 -24 77 -24c41 0 74 22 90 59l14 32l-175 430h-61v95h251v-95h-60l93 -258c9 -25 11 -53 11 -53h3s4 28 14 53l92 258h-59v95h241v-95h-58l-188 -481c-39 -101 -115 -144 -202 -144c-74 0 -124 35 -124 35zM236 573l108 136h138l-135 -136h-111z" />
    <glyph glyph-name="thorn" unicode="&#xfe;" horiz-adv-x="621" 
d="M2 615v95h204v-221c0 -25 -1 -43 -1 -43h2s39 76 149 76c139 0 229 -114 229 -267c0 -154 -94 -267 -231 -267c-109 0 -148 72 -148 72h-2s2 -18 2 -44v-121h74v-95h-274v95h73v720h-77zM203 254c0 -100 51 -159 128 -159c74 0 126 67 126 160c0 92 -49 159 -124 159
c-70 0 -130 -43 -130 -160z" />
    <glyph glyph-name="ydieresis" unicode="&#xff;" horiz-adv-x="606" 
d="M65 -82c0 0 30 -24 77 -24c41 0 74 22 90 59l14 32l-175 430h-61v95h251v-95h-60l93 -258c9 -25 11 -53 11 -53h3s4 28 14 53l92 258h-59v95h241v-95h-58l-188 -481c-39 -101 -115 -144 -202 -144c-74 0 -124 35 -124 35zM364 593v116h104v-116h-104zM147 593v116h104
v-116h-104z" />
    <glyph glyph-name="Amacron" unicode="&#x100;" horiz-adv-x="729" 
d="M12 0v98h65l213 612h149l213 -612h65v-98h-267v98h70l-44 133h-224l-44 -133h70v-98h-266zM282 333h164l-67 201c-11 35 -13 62 -13 62h-3s-3 -27 -13 -62zM233 783v87h262v-87h-262z" />
    <glyph glyph-name="amacron" unicode="&#x101;" horiz-adv-x="565" 
d="M28 143c0 156 205 172 287 172h32v17c0 65 -41 88 -94 88c-76 0 -144 -49 -144 -49l-47 88s79 63 202 63c137 0 210 -71 210 -201v-204c0 -15 8 -22 22 -22h46v-95h-120c-47 0 -65 25 -65 54v6c0 16 3 26 3 26h-2s-43 -98 -161 -98c-87 0 -169 51 -169 155zM156 153
c0 -38 27 -70 74 -70c69 0 118 74 118 138v17h-21c-50 0 -171 -8 -171 -85zM138 599v87h262v-87h-262z" />
    <glyph glyph-name="Abreve" unicode="&#x102;" horiz-adv-x="729" 
d="M12 0v98h65l213 612h149l213 -612h65v-98h-267v98h70l-44 133h-224l-44 -133h70v-98h-266zM282 333h164l-67 201c-11 35 -13 62 -13 62h-3s-3 -27 -13 -62zM364 753c-79 0 -149 45 -149 128v12h91v-12c0 -40 29 -58 58 -58c28 0 57 18 57 59v11h92v-12
c0 -83 -71 -128 -149 -128z" />
    <glyph glyph-name="breve" unicode="&#x2d8;" horiz-adv-x="493" 
d="M247 753c-79 0 -149 45 -149 128v12h91v-12c0 -40 29 -58 58 -58c28 0 57 18 57 59v11h92v-12c0 -83 -71 -128 -149 -128z" />
    <glyph glyph-name="abreve" unicode="&#x103;" horiz-adv-x="565" 
d="M28 143c0 156 205 172 287 172h32v17c0 65 -41 88 -94 88c-76 0 -144 -49 -144 -49l-47 88s79 63 202 63c137 0 210 -71 210 -201v-204c0 -15 8 -22 22 -22h46v-95h-120c-47 0 -65 25 -65 54v6c0 16 3 26 3 26h-2s-43 -98 -161 -98c-87 0 -169 51 -169 155zM156 153
c0 -38 27 -70 74 -70c69 0 118 74 118 138v17h-21c-50 0 -171 -8 -171 -85zM269 569c-79 0 -149 45 -149 128v12h91v-12c0 -40 29 -58 58 -58c28 0 57 18 57 59v11h92v-12c0 -83 -71 -128 -149 -128z" />
    <glyph glyph-name="Aogonek" unicode="&#x104;" horiz-adv-x="729" 
d="M539 -122c0 48 29 93 67 122h-156v98h70l-44 133h-224l-44 -133h70v-98h-266v98h65l213 612h149l213 -612h65v-98h-5c-24 0 -79 -56 -79 -99c0 -30 30 -43 61 -45l-22 -85c-61 7 -133 36 -133 107zM282 333h164l-67 201c-11 35 -13 62 -13 62h-3s-3 -27 -13 -62z" />
    <glyph glyph-name="aogonek" unicode="&#x105;" horiz-adv-x="565" 
d="M364 -122c0 48 29 93 67 122h-11c-44 0 -63 24 -63 54v6c0 16 3 26 3 26h-2s-43 -98 -161 -98c-87 0 -169 51 -169 155c0 156 205 172 287 172h32v17c0 65 -41 88 -94 88c-76 0 -144 -49 -144 -49l-47 88s79 63 202 63c137 0 210 -71 210 -201v-204c0 -15 8 -22 22 -22
h46v-95h-5c-24 0 -79 -56 -79 -99c0 -30 31 -43 61 -45l-22 -85c-61 7 -133 36 -133 107zM156 153c0 -38 27 -70 74 -70c69 0 118 74 118 138v17h-21c-50 0 -171 -8 -171 -85z" />
    <glyph glyph-name="Cacute" unicode="&#x106;" horiz-adv-x="745" 
d="M327 757l108 136h138l-135 -136h-111zM43 358c0 210 160 364 366 364c86 0 277 -30 277 -142v-96h-119v55c0 53 -94 71 -152 71c-137 0 -237 -96 -237 -246c0 -160 104 -264 244 -264c43 0 154 14 154 70v55h119v-97c0 -106 -183 -140 -281 -140
c-215 0 -371 163 -371 370z" />
    <glyph glyph-name="cacute" unicode="&#x107;" horiz-adv-x="558" 
d="M223 573l108 136h138l-135 -136h-111zM34 254c0 152 117 268 274 268c85 0 209 -32 209 -122v-70h-110v34c0 34 -52 50 -95 50c-93 0 -150 -64 -150 -157c0 -105 73 -162 160 -162c72 0 131 40 159 62l45 -90c-35 -33 -114 -79 -211 -79c-149 0 -281 101 -281 266z" />
    <glyph glyph-name="Ccircumflex" unicode="&#x108;" horiz-adv-x="745" 
d="M242 757l92 136h130l92 -136h-106l-50 81h-2l-50 -81h-106zM43 358c0 210 160 364 366 364c86 0 277 -30 277 -142v-96h-119v55c0 53 -94 71 -152 71c-137 0 -237 -96 -237 -246c0 -160 104 -264 244 -264c43 0 154 14 154 70v55h119v-97c0 -106 -183 -140 -281 -140
c-215 0 -371 163 -371 370z" />
    <glyph glyph-name="ccircumflex" unicode="&#x109;" horiz-adv-x="558" 
d="M138 573l92 136h130l92 -136h-106l-50 81h-2l-50 -81h-106zM34 254c0 152 117 268 274 268c85 0 209 -32 209 -122v-70h-110v34c0 34 -52 50 -95 50c-93 0 -150 -64 -150 -157c0 -105 73 -162 160 -162c72 0 131 40 159 62l45 -90c-35 -33 -114 -79 -211 -79
c-149 0 -281 101 -281 266z" />
    <glyph glyph-name="Cdotaccent" unicode="&#x10a;" horiz-adv-x="745" 
d="M43 358c0 210 160 364 366 364c86 0 277 -30 277 -142v-96h-119v55c0 53 -94 71 -152 71c-137 0 -237 -96 -237 -246c0 -160 104 -264 244 -264c43 0 154 14 154 70v55h119v-97c0 -106 -183 -140 -281 -140c-215 0 -371 163 -371 370zM343 782v111h112v-111h-112z" />
    <glyph glyph-name="dotaccent" unicode="&#x2d9;" horiz-adv-x="494" 
d="M191 782v111h112v-111h-112z" />
    <glyph glyph-name="cdotaccent" unicode="&#x10b;" horiz-adv-x="558" 
d="M34 254c0 152 117 268 274 268c85 0 209 -32 209 -122v-70h-110v34c0 34 -52 50 -95 50c-93 0 -150 -64 -150 -157c0 -105 73 -162 160 -162c72 0 131 40 159 62l45 -90c-35 -33 -114 -79 -211 -79c-149 0 -281 101 -281 266zM240 598v111h112v-111h-112z" />
    <glyph glyph-name="Ccaron" unicode="&#x10c;" horiz-adv-x="745" 
d="M334 757l-92 136h106l50 -81h2l50 81h106l-92 -136h-130zM43 358c0 210 160 364 366 364c86 0 277 -30 277 -142v-96h-119v55c0 53 -94 71 -152 71c-137 0 -237 -96 -237 -246c0 -160 104 -264 244 -264c43 0 154 14 154 70v55h119v-97c0 -106 -183 -140 -281 -140
c-215 0 -371 163 -371 370z" />
    <glyph glyph-name="caron" unicode="&#x2c7;" horiz-adv-x="494" 
d="M182 757l-92 136h106l50 -81h2l50 81h106l-92 -136h-130z" />
    <glyph glyph-name="ccaron" unicode="&#x10d;" horiz-adv-x="558" 
d="M230 573l-92 136h106l50 -81h2l50 81h106l-92 -136h-130zM34 254c0 152 117 268 274 268c85 0 209 -32 209 -122v-70h-110v34c0 34 -52 50 -95 50c-93 0 -150 -64 -150 -157c0 -105 73 -162 160 -162c72 0 131 40 159 62l45 -90c-35 -33 -114 -79 -211 -79
c-149 0 -281 101 -281 266z" />
    <glyph glyph-name="Dcaron" unicode="&#x10e;" horiz-adv-x="781" 
d="M306 757l-92 136h106l50 -81h2l50 81h106l-92 -136h-130zM50 0v98h85v513h-85v99h307c57 0 102 -3 148 -17c138 -41 230 -163 230 -338c0 -168 -85 -289 -220 -334c-48 -17 -98 -21 -157 -21h-308zM266 105h86c45 0 81 4 116 18c81 33 132 116 132 232
c0 120 -54 202 -137 234c-36 14 -69 16 -111 16h-86v-500z" />
    <glyph glyph-name="dcaron" unicode="&#x10f;" horiz-adv-x="641" 
d="M608 710h106c6 -17 8 -36 8 -52c0 -61 -39 -107 -93 -129l-49 42c26 23 40 49 40 79c0 19 -4 38 -12 60zM36 255c0 162 95 267 233 267c109 0 147 -72 147 -72h2s-2 15 -2 36v129h-79v95h205v-593c0 -15 8 -22 22 -22h46v-95h-120c-46 0 -65 25 -65 54v6c0 14 3 23 3 23
h-2s-40 -95 -167 -95c-136 0 -223 109 -223 267zM164 255c0 -97 52 -160 126 -160c67 0 129 48 129 157c0 83 -41 161 -125 161c-72 0 -130 -57 -130 -158z" />
    <glyph glyph-name="commaaccent" horiz-adv-x="335" 
d="M120 -53h106c6 -17 8 -36 8 -52c0 -61 -39 -107 -93 -129l-49 42c26 23 40 49 40 79c0 19 -4 38 -12 60z" />
    <glyph glyph-name="Dcroat" unicode="&#x110;" horiz-adv-x="788" 
d="M50 0v98h85v203h-73v105h73v205h-85v99h329c220 0 363 -130 363 -354s-143 -356 -363 -356h-329zM266 105h106c142 0 234 87 234 251c0 162 -94 249 -234 249h-106v-199h139v-105h-139v-196z" />
    <glyph glyph-name="dcroat" unicode="&#x111;" horiz-adv-x="641" 
d="M36 255c0 162 95 267 233 267c109 0 147 -73 147 -73h2s-2 15 -2 36v78h-149v75h149v72h126v-72h72v-75h-72v-446c0 -15 8 -22 22 -22h46v-95h-120c-46 0 -65 25 -65 54v6c0 14 3 23 3 23h-2s-40 -95 -167 -95c-136 0 -223 109 -223 267zM164 255c0 -97 52 -160 126 -160
c67 0 129 48 129 157c0 83 -41 161 -125 161c-72 0 -130 -57 -130 -158z" />
    <glyph glyph-name="Emacron" unicode="&#x112;" horiz-adv-x="640" 
d="M50 0v98h85v513h-85v99h527v-183h-112v78h-199v-195h234v-105h-234v-200h214v80h112v-185h-542zM201 783v87h262v-87h-262z" />
    <glyph glyph-name="emacron" unicode="&#x113;" horiz-adv-x="558" 
d="M35 255c0 157 106 267 259 267c147 0 227 -107 227 -242c0 -15 -3 -43 -3 -43h-353c8 -94 76 -142 153 -142c83 0 148 54 148 54l49 -90s-78 -71 -206 -71c-169 0 -274 122 -274 267zM168 312h222c-2 70 -45 112 -99 112c-65 0 -111 -45 -123 -112zM163 599v87h262v-87
h-262z" />
    <glyph glyph-name="Ebreve" unicode="&#x114;" horiz-adv-x="640" 
d="M50 0v98h85v513h-85v99h527v-183h-112v78h-199v-195h234v-105h-234v-200h214v80h112v-185h-542zM331 753c-79 0 -149 45 -149 128v12h91v-12c0 -40 29 -58 58 -58c28 0 57 18 57 59v11h92v-12c0 -83 -71 -128 -149 -128z" />
    <glyph glyph-name="ebreve" unicode="&#x115;" horiz-adv-x="558" 
d="M35 255c0 157 106 267 259 267c147 0 227 -107 227 -242c0 -15 -3 -43 -3 -43h-353c8 -94 76 -142 153 -142c83 0 148 54 148 54l49 -90s-78 -71 -206 -71c-169 0 -274 122 -274 267zM168 312h222c-2 70 -45 112 -99 112c-65 0 -111 -45 -123 -112zM294 569
c-79 0 -149 45 -149 128v12h91v-12c0 -40 29 -58 58 -58c28 0 57 18 57 59v11h92v-12c0 -83 -71 -128 -149 -128z" />
    <glyph glyph-name="Edotaccent" unicode="&#x116;" horiz-adv-x="640" 
d="M50 0v98h85v513h-85v99h527v-183h-112v78h-199v-195h234v-105h-234v-200h214v80h112v-185h-542zM275 782v111h112v-111h-112z" />
    <glyph glyph-name="edotaccent" unicode="&#x117;" horiz-adv-x="558" 
d="M35 255c0 157 106 267 259 267c147 0 227 -107 227 -242c0 -15 -3 -43 -3 -43h-353c8 -94 76 -142 153 -142c83 0 148 54 148 54l49 -90s-78 -71 -206 -71c-169 0 -274 122 -274 267zM168 312h222c-2 70 -45 112 -99 112c-65 0 -111 -45 -123 -112zM238 598v111h112v-111
h-112z" />
    <glyph glyph-name="Eogonek" unicode="&#x118;" horiz-adv-x="640" 
d="M50 0v98h85v513h-85v99h527v-183h-112v78h-199v-195h234v-105h-234v-200h214v80h112v-185h-7c-24 0 -80 -55 -80 -99c0 -30 31 -43 61 -45l-22 -85c-61 7 -133 36 -133 107c0 48 29 93 67 122h-428z" />
    <glyph glyph-name="eogonek" unicode="&#x119;" horiz-adv-x="558" 
d="M35 255c0 157 106 267 259 267c147 0 227 -107 227 -242c0 -15 -3 -43 -3 -43h-353c8 -94 76 -142 153 -142c83 0 148 54 148 54l49 -90s-34 -26 -84 -51c-15 -8 -76 -49 -76 -107c0 -30 30 -43 61 -45l-22 -85c-61 7 -134 36 -134 107c0 42 23 82 55 110
c-174 -4 -280 122 -280 267zM168 312h222c-2 70 -45 112 -99 112c-65 0 -111 -45 -123 -112z" />
    <glyph glyph-name="Ecaron" unicode="&#x11a;" horiz-adv-x="640" 
d="M266 757l-92 136h106l50 -81h2l50 81h106l-92 -136h-130zM50 0v98h85v513h-85v99h527v-183h-112v78h-199v-195h234v-105h-234v-200h214v80h112v-185h-542z" />
    <glyph glyph-name="ecaron" unicode="&#x11b;" horiz-adv-x="558" 
d="M228 573l-92 136h106l50 -81h2l50 81h106l-92 -136h-130zM35 255c0 157 106 267 259 267c147 0 227 -107 227 -242c0 -15 -3 -43 -3 -43h-353c8 -94 76 -142 153 -142c83 0 148 54 148 54l49 -90s-78 -71 -206 -71c-169 0 -274 122 -274 267zM168 312h222
c-2 70 -45 112 -99 112c-65 0 -111 -45 -123 -112z" />
    <glyph glyph-name="Gcircumflex" unicode="&#x11c;" horiz-adv-x="768" 
d="M247 757l92 136h130l92 -136h-106l-50 81h-2l-50 -81h-106zM43 358c0 211 154 364 375 364c127 0 278 -50 278 -140v-98h-119v52c0 49 -77 74 -153 74c-151 0 -245 -96 -245 -247c0 -152 94 -263 251 -263c57 0 163 15 163 74v76h-129v98h248v-214
c0 -108 -190 -146 -295 -146c-218 0 -374 158 -374 370z" />
    <glyph glyph-name="gcircumflex" unicode="&#x11d;" horiz-adv-x="636" 
d="M148 573l92 136h130l92 -136h-106l-50 81h-2l-50 -81h-106zM123 -72c0 0 63 -34 141 -34s144 34 144 128v32c0 12 2 27 2 27h-2c-30 -45 -74 -71 -142 -71c-147 0 -229 118 -229 258s79 254 226 254c61 0 130 -23 158 -77h2s-2 7 -2 17c0 27 18 48 58 48h127v-95h-49
c-13 0 -22 -7 -22 -20v-364c0 -175 -136 -241 -269 -241c-64 0 -132 18 -182 44zM293 117c60 0 118 35 118 150c0 116 -58 147 -126 147c-77 0 -120 -56 -120 -142c0 -89 46 -155 128 -155z" />
    <glyph glyph-name="Gbreve" unicode="&#x11e;" horiz-adv-x="768" 
d="M43 358c0 211 154 364 375 364c127 0 278 -50 278 -140v-98h-119v52c0 49 -77 74 -153 74c-151 0 -245 -96 -245 -247c0 -152 94 -263 251 -263c57 0 163 15 163 74v76h-129v98h248v-214c0 -108 -190 -146 -295 -146c-218 0 -374 158 -374 370zM404 753
c-79 0 -149 45 -149 128v12h91v-12c0 -40 29 -58 58 -58c28 0 57 18 57 59v11h92v-12c0 -83 -71 -128 -149 -128z" />
    <glyph glyph-name="gbreve" unicode="&#x11f;" horiz-adv-x="636" 
d="M123 -72c0 0 63 -34 141 -34s144 34 144 128v32c0 12 2 27 2 27h-2c-30 -45 -74 -71 -142 -71c-147 0 -229 118 -229 258s79 254 226 254c61 0 130 -23 158 -77h2s-2 7 -2 17c0 27 18 48 58 48h127v-95h-49c-13 0 -22 -7 -22 -20v-364c0 -175 -136 -241 -269 -241
c-64 0 -132 18 -182 44zM293 117c60 0 118 35 118 150c0 116 -58 147 -126 147c-77 0 -120 -56 -120 -142c0 -89 46 -155 128 -155zM306 569c-79 0 -149 45 -149 128v12h91v-12c0 -40 29 -58 58 -58c28 0 57 18 57 59v11h92v-12c0 -83 -71 -128 -149 -128z" />
    <glyph glyph-name="Gdotaccent" unicode="&#x120;" horiz-adv-x="768" 
d="M43 358c0 211 154 364 375 364c127 0 278 -50 278 -140v-98h-119v52c0 49 -77 74 -153 74c-151 0 -245 -96 -245 -247c0 -152 94 -263 251 -263c57 0 163 15 163 74v76h-129v98h248v-214c0 -108 -190 -146 -295 -146c-218 0 -374 158 -374 370zM348 782v111h112v-111
h-112z" />
    <glyph glyph-name="gdotaccent" unicode="&#x121;" horiz-adv-x="636" 
d="M123 -72c0 0 63 -34 141 -34s144 34 144 128v32c0 12 2 27 2 27h-2c-30 -45 -74 -71 -142 -71c-147 0 -229 118 -229 258s79 254 226 254c61 0 130 -23 158 -77h2s-2 7 -2 17c0 27 18 48 58 48h127v-95h-49c-13 0 -22 -7 -22 -20v-364c0 -175 -136 -241 -269 -241
c-64 0 -132 18 -182 44zM293 117c60 0 118 35 118 150c0 116 -58 147 -126 147c-77 0 -120 -56 -120 -142c0 -89 46 -155 128 -155zM250 598v111h112v-111h-112z" />
    <glyph glyph-name="Gcommaaccent" unicode="&#x122;" horiz-adv-x="768" 
d="M350 -53h106c6 -17 8 -36 8 -52c0 -61 -39 -107 -93 -129l-49 42c26 23 40 49 40 79c0 19 -4 38 -12 60zM43 358c0 211 154 364 375 364c127 0 278 -50 278 -140v-98h-119v52c0 49 -77 74 -153 74c-151 0 -245 -96 -245 -247c0 -152 94 -263 251 -263c57 0 163 15 163 74
v76h-129v98h248v-214c0 -108 -190 -146 -295 -146c-218 0 -374 158 -374 370z" />
    <glyph glyph-name="gcommaaccent" unicode="&#x123;" horiz-adv-x="636" 
d="M347 573h-106c-6 17 -8 36 -8 52c0 61 39 107 93 129l49 -42c-26 -23 -40 -49 -40 -79c0 -19 4 -38 12 -60zM123 -72c0 0 63 -34 141 -34s144 34 144 128v32c0 12 2 27 2 27h-2c-30 -45 -74 -71 -142 -71c-147 0 -229 118 -229 258s79 254 226 254c61 0 130 -23 158 -77
h2s-2 7 -2 17c0 27 18 48 58 48h127v-95h-49c-13 0 -22 -7 -22 -20v-364c0 -175 -136 -241 -269 -241c-64 0 -132 18 -182 44zM293 117c60 0 118 35 118 150c0 116 -58 147 -126 147c-77 0 -120 -56 -120 -142c0 -89 46 -155 128 -155z" />
    <glyph glyph-name="Hcircumflex" unicode="&#x124;" horiz-adv-x="855" 
d="M271 757l92 136h130l92 -136h-106l-50 81h-2l-50 -81h-106zM50 0v98h85v513h-85v99h302v-99h-86v-205h323v205h-86v99h302v-99h-85v-513h85v-98h-302v98h86v203h-323v-203h86v-98h-302z" />
    <glyph glyph-name="hcircumflex" unicode="&#x125;" horiz-adv-x="679" 
d="M9 757l92 136h130l92 -136h-106l-50 81h-2l-50 -81h-106zM29 0v95h74v520h-79v95h206v-248c0 -25 -3 -43 -3 -43h2c25 49 88 103 176 103c113 0 178 -59 178 -194v-233h74v-95h-201v302c0 62 -16 104 -80 104c-90 0 -146 -78 -146 -172v-139h73v-95h-274z" />
    <glyph glyph-name="Hbar" unicode="&#x126;" horiz-adv-x="857" 
d="M54 469v66h81v76h-85v99h302v-99h-86v-76h323v76h-86v99h302v-99h-85v-76h81v-66h-81v-371h85v-98h-302v98h86v197h-323v-197h86v-98h-302v98h85v371h-81zM266 380h323v89h-323v-89z" />
    <glyph glyph-name="hbar" unicode="&#x127;" horiz-adv-x="679" 
d="M29 0v95h74v468h-66v74h66v73h127v-73h153v-74h-153v-101c0 -25 -3 -43 -3 -43h2c25 49 88 103 176 103c113 0 178 -59 178 -194v-233h74v-95h-201v302c0 62 -16 104 -80 104c-91 0 -146 -81 -146 -171v-140h64v-95h-265z" />
    <glyph glyph-name="Itilde" unicode="&#x128;" horiz-adv-x="403" 
d="M50 0v98h85v513h-85v99h302v-99h-86v-513h86v-98h-302zM19 758c0 91 37 137 112 137c70 0 87 -64 127 -64c29 0 39 29 39 61h88c0 -90 -38 -137 -113 -137c-70 0 -87 64 -127 64c-28 0 -38 -28 -38 -61h-88z" />
    <glyph glyph-name="itilde" unicode="&#x129;" horiz-adv-x="343" 
d="M46 0v95h70v320h-74v95h201v-415h70v-95h-267zM-4 574c0 91 37 137 112 137c70 0 87 -64 127 -64c29 0 39 29 39 61h88c0 -90 -38 -137 -113 -137c-70 0 -87 64 -127 64c-28 0 -38 -28 -38 -61h-88z" />
    <glyph glyph-name="Imacron" unicode="&#x12a;" horiz-adv-x="403" 
d="M50 0v98h85v513h-85v99h302v-99h-86v-513h86v-98h-302zM71 783v87h262v-87h-262z" />
    <glyph glyph-name="imacron" unicode="&#x12b;" horiz-adv-x="343" 
d="M46 0v95h70v320h-74v95h201v-415h70v-95h-267zM48 599v87h262v-87h-262z" />
    <glyph glyph-name="Ibreve" unicode="&#x12c;" horiz-adv-x="403" 
d="M50 0v98h85v513h-85v99h302v-99h-86v-513h86v-98h-302zM201 753c-79 0 -149 45 -149 128v12h91v-12c0 -40 29 -58 58 -58c28 0 57 18 57 59v11h92v-12c0 -83 -71 -128 -149 -128z" />
    <glyph glyph-name="ibreve" unicode="&#x12d;" horiz-adv-x="343" 
d="M46 0v95h70v320h-74v95h201v-415h70v-95h-267zM179 569c-79 0 -149 45 -149 128v12h91v-12c0 -40 29 -58 58 -58c28 0 57 18 57 59v11h92v-12c0 -83 -71 -128 -149 -128z" />
    <glyph glyph-name="Iogonek" unicode="&#x12e;" horiz-adv-x="403" 
d="M50 0v98h85v513h-85v99h302v-99h-86v-513h86v-98h-10c-25 -1 -78 -56 -78 -99c0 -30 30 -43 60 -45l-22 -85c-60 7 -133 36 -133 107c0 48 30 93 67 122h-186z" />
    <glyph glyph-name="iogonek" unicode="&#x12f;" horiz-adv-x="350" 
d="M46 0v95h74v320h-79v95h206v-415h73v-95h-8c-24 0 -79 -56 -79 -99c0 -30 31 -43 61 -45l-22 -85c-61 7 -133 36 -133 107c0 48 29 93 67 122h-160zM119 597v113h128v-113h-128z" />
    <glyph glyph-name="Idotaccent" unicode="&#x130;" horiz-adv-x="403" 
d="M50 0v98h85v513h-85v99h302v-99h-86v-513h86v-98h-302zM145 782v111h112v-111h-112z" />
    <glyph glyph-name="IJ" unicode="&#x132;" horiz-adv-x="768" 
d="M52 0v98h84v513h-85v99h302v-99h-86v-513h71v-98h-286zM392 103c51 -3 129 18 129 126v382h-92v99h302v-99h-79v-370c0 -204 -136 -250 -260 -243v105z" />
    <glyph glyph-name="ij" unicode="&#x133;" horiz-adv-x="640" 
d="M119 597v113h128v-113h-128zM46 0v95h74v320h-79v95h206v-415h73v-95h-274zM434 597v113h128v-113h-128zM310 -103c0 0 9 -2 22 -2c36 0 102 12 102 98v422h-79v95h206v-522c0 -171 -143 -195 -213 -195c-23 0 -38 3 -38 3v101z" />
    <glyph glyph-name="Jcircumflex" unicode="&#x134;" horiz-adv-x="566" 
d="M230 757l92 136h130l92 -136h-106l-50 81h-2l-50 -81h-106zM20 202v49h126v-38c0 -57 21 -110 90 -110c49 0 87 31 87 110v398h-98v99h304v-99h-75v-403c0 -153 -111 -220 -219 -220c-106 0 -215 62 -215 214z" />
    <glyph glyph-name="jcircumflex" unicode="&#x135;" horiz-adv-x="314" 
d="M-9 573l92 137h130l92 -137h-106l-50 82h-2l-50 -82h-106zM-16 -103c0 0 9 -2 22 -2c36 0 102 12 102 98v422h-79v95h206v-522c0 -171 -143 -195 -213 -195c-23 0 -38 3 -38 3v101z" />
    <glyph glyph-name="Kcommaaccent" unicode="&#x136;" horiz-adv-x="714" 
d="M317 -53h106c6 -17 8 -36 8 -52c0 -61 -39 -107 -93 -129l-49 42c26 23 40 49 40 79c0 19 -4 38 -12 60zM50 0v98h85v513h-85v99h284v-99h-68v-193h79l135 193h-61v99h260v-99h-64l-171 -235v-2s24 -11 46 -53l109 -198c9 -17 23 -25 47 -25h33v-98h-91
c-60 0 -79 15 -100 53l-124 234c-11 19 -25 26 -53 26h-45v-215h82v-98h-298z" />
    <glyph glyph-name="kcommaaccent" unicode="&#x137;" horiz-adv-x="607" 
d="M269 -53h106c6 -17 8 -36 8 -52c0 -61 -39 -107 -93 -129l-49 42c26 23 40 49 40 79c0 19 -4 38 -12 60zM29 0v95h74v520h-79v95h206v-393h67l83 98h-59v95h245v-95h-66l-111 -131v-2c1 0 19 -9 39 -43l72 -126c9 -15 18 -18 42 -18h29v-95h-95c-43 0 -60 7 -80 44
l-92 161c-10 18 -26 19 -44 19h-30v-129h55v-95h-256z" />
    <glyph glyph-name="kgreenlandic" unicode="&#x138;" horiz-adv-x="623" 
d="M46 0v95h74v320h-79v95h206v-189h71l78 94h-58v95h242v-95h-63l-110 -131v-2s20 -13 40 -46l70 -123c9 -15 18 -18 42 -18h29v-95h-95c-43 0 -59 7 -80 44l-92 161c-10 18 -26 19 -44 19h-30v-129h55v-95h-256z" />
    <glyph glyph-name="Lacute" unicode="&#x139;" horiz-adv-x="614" 
d="M128 757l108 136h138l-135 -136h-111zM51 0v98h85v507h-85v105h302v-105h-86v-500h210v110h112v-215h-538z" />
    <glyph glyph-name="lacute" unicode="&#x13a;" horiz-adv-x="308" 
d="M66 757l108 136h138l-135 -136h-111zM75 162v453h-79v95h205v-540c0 -46 10 -70 52 -70c14 0 24 1 24 1v-102s-21 -3 -46 -3c-81 0 -156 27 -156 166z" />
    <glyph glyph-name="Lcommaaccent" unicode="&#x13b;" horiz-adv-x="614" 
d="M291 -53h106c6 -17 8 -36 8 -52c0 -61 -39 -107 -93 -129l-49 42c26 23 40 49 40 79c0 19 -4 38 -12 60zM51 0v98h85v507h-85v105h302v-105h-86v-500h210v110h112v-215h-538z" />
    <glyph glyph-name="lcommaaccent" unicode="&#x13c;" horiz-adv-x="308" 
d="M123 -53h106c6 -17 8 -36 8 -52c0 -61 -39 -107 -93 -129l-49 42c26 23 40 49 40 79c0 19 -4 38 -12 60zM75 162v453h-79v95h205v-540c0 -46 10 -70 52 -70c14 0 24 1 24 1v-102s-21 -3 -46 -3c-81 0 -156 27 -156 166z" />
    <glyph glyph-name="Lcaron" unicode="&#x13d;" horiz-adv-x="614" 
d="M291 -53h106c6 -17 8 -36 8 -52c0 -61 -39 -107 -93 -129l-49 42c26 23 40 49 40 79c0 19 -4 38 -12 60zM51 0v98h85v507h-85v105h302v-105h-86v-500h210v110h112v-215h-538z" />
    <glyph glyph-name="lcaron" unicode="&#x13e;" horiz-adv-x="308" 
d="M276 709h106c6 -17 8 -36 8 -52c0 -61 -39 -107 -93 -129l-49 42c26 23 40 49 40 79c0 19 -4 38 -12 60zM75 162v453h-79v95h205v-540c0 -46 10 -70 52 -70c14 0 24 1 24 1v-102s-21 -3 -46 -3c-81 0 -156 27 -156 166z" />
    <glyph glyph-name="Ldot" unicode="&#x13f;" horiz-adv-x="614" 
d="M51 0v98h85v507h-85v105h302v-105h-86v-500h210v110h112v-215h-538zM374 322v128h124v-128h-124z" />
    <glyph glyph-name="ldot" unicode="&#x140;" horiz-adv-x="419" 
d="M75 162v453h-79v95h205v-540c0 -46 10 -70 52 -70c14 0 24 1 24 1v-102s-21 -3 -46 -3c-81 0 -156 27 -156 166zM284 323v128h124v-128h-124z" />
    <glyph glyph-name="Lslash" unicode="&#x141;" horiz-adv-x="613" 
d="M50 0v98h85v158l-83 -43v111l83 43v238h-85v105h302v-105h-86v-168l188 99v-111l-188 -99v-221h217v110h105v-215h-538z" />
    <glyph glyph-name="lslash" unicode="&#x142;" horiz-adv-x="308" 
d="M-2 255v111l77 42v207h-79v95h205v-232l90 50v-111l-90 -50v-195c0 -46 10 -70 52 -70c14 0 24 1 24 1v-104s-21 -3 -46 -3c-81 0 -156 27 -156 166v135z" />
    <glyph glyph-name="Nacute" unicode="&#x143;" horiz-adv-x="847" 
d="M354 757l108 136h138l-135 -136h-111zM50 0v98h85v513h-85v99h216l299 -457c14 -23 26 -60 26 -60h3s-5 41 -4 67v351h-88v99h304v-99h-85v-611h-131l-299 455c-14 24 -26 60 -26 60h-4s6 -40 5 -66v-351h88v-98h-304z" />
    <glyph glyph-name="nacute" unicode="&#x144;" horiz-adv-x="697" 
d="M295 573l108 136h138l-135 -136h-111zM46 0v95h74v298c0 14 -8 22 -22 22h-57v95h134c45 0 66 -21 66 -57v-23c0 -11 -2 -22 -2 -22h2c6 16 60 114 188 114c109 0 171 -59 171 -194v-233h74v-95h-200v302c0 62 -17 104 -81 104c-92 0 -146 -88 -146 -177v-134h73v-95
h-274z" />
    <glyph glyph-name="Ncommaaccent" unicode="&#x145;" horiz-adv-x="847" 
d="M373 -53h106c6 -17 8 -36 8 -52c0 -61 -39 -107 -93 -129l-49 42c26 23 40 49 40 79c0 19 -4 38 -12 60zM50 0v98h85v513h-85v99h216l299 -457c14 -23 26 -60 26 -60h3s-5 41 -4 67v351h-88v99h304v-99h-85v-611h-131l-299 455c-14 24 -26 60 -26 60h-4s6 -40 5 -66v-351
h88v-98h-304z" />
    <glyph glyph-name="ncommaaccent" unicode="&#x146;" horiz-adv-x="697" 
d="M305 -53h106c6 -17 8 -36 8 -52c0 -61 -39 -107 -93 -129l-49 42c26 23 40 49 40 79c0 19 -4 38 -12 60zM46 0v95h74v298c0 14 -8 22 -22 22h-57v95h134c45 0 66 -21 66 -57v-23c0 -11 -2 -22 -2 -22h2c6 16 60 114 188 114c109 0 171 -59 171 -194v-233h74v-95h-200v302
c0 62 -17 104 -81 104c-92 0 -146 -88 -146 -177v-134h73v-95h-274z" />
    <glyph glyph-name="Ncaron" unicode="&#x147;" horiz-adv-x="847" 
d="M361 757l-92 136h106l50 -81h2l50 81h106l-92 -136h-130zM50 0v98h85v513h-85v99h216l299 -457c14 -23 26 -60 26 -60h3s-5 41 -4 67v351h-88v99h304v-99h-85v-611h-131l-299 455c-14 24 -26 60 -26 60h-4s6 -40 5 -66v-351h88v-98h-304z" />
    <glyph glyph-name="ncaron" unicode="&#x148;" horiz-adv-x="697" 
d="M302 573l-92 136h106l50 -81h2l50 81h106l-92 -136h-130zM46 0v95h74v298c0 14 -8 22 -22 22h-57v95h134c45 0 66 -21 66 -57v-23c0 -11 -2 -22 -2 -22h2c6 16 60 114 188 114c109 0 171 -59 171 -194v-233h74v-95h-200v302c0 62 -17 104 -81 104
c-92 0 -146 -88 -146 -177v-134h73v-95h-274z" />
    <glyph glyph-name="napostrophe" unicode="&#x149;" horiz-adv-x="697" 
d="M34 732h106c6 -17 8 -36 8 -52c0 -61 -39 -107 -93 -129l-49 42c26 23 40 49 40 79c0 19 -4 38 -12 60zM46 0v95h74v298c0 14 -8 22 -22 22h-57v95h134c45 0 66 -21 66 -57v-23c0 -11 -2 -22 -2 -22h2c6 16 60 114 188 114c109 0 171 -59 171 -194v-233h74v-95h-200v302
c0 62 -17 104 -81 104c-92 0 -146 -88 -146 -177v-134h73v-95h-274z" />
    <glyph glyph-name="Eng" unicode="&#x14a;" horiz-adv-x="847" 
d="M50 0v98h85v513h-85v99h217l298 -457c14 -23 26 -60 26 -60h3s-5 41 -4 67v351h-88v99h304v-99h-85v-568c0 -200 -115 -248 -260 -248v111c67 0 129 27 130 91l-300 458c-14 24 -26 60 -26 60h-4s6 -40 5 -66v-351h88v-98h-304z" />
    <glyph glyph-name="eng" unicode="&#x14b;" horiz-adv-x="669" 
d="M46 0v95h74v298c0 14 -8 22 -22 22h-57v95h134c45 0 66 -21 66 -57v-23c0 -11 -2 -22 -2 -22h2c6 16 60 114 188 114c109 0 171 -59 171 -194v-345c0 -171 -143 -192 -212 -192c-24 0 -39 3 -39 3v104s9 -2 22 -2c36 0 103 11 103 94v312c0 62 -17 104 -81 104
c-93 0 -146 -90 -146 -179v-132h73v-95h-274z" />
    <glyph glyph-name="Omacron" unicode="&#x14c;" horiz-adv-x="820" 
d="M280 783v87h262v-87h-262zM42 360c0 203 158 362 368 362s368 -159 368 -362c0 -209 -158 -372 -368 -372s-368 163 -368 372zM177 360c0 -146 105 -257 233 -257s233 111 233 257c0 140 -105 247 -233 247s-233 -107 -233 -247z" />
    <glyph glyph-name="omacron" unicode="&#x14d;" horiz-adv-x="629" 
d="M184 599v87h262v-87h-262zM34 255c0 156 125 267 280 267c156 0 281 -111 281 -267c0 -157 -125 -267 -280 -267c-156 0 -281 110 -281 267zM163 255c0 -95 69 -159 152 -159c82 0 151 64 151 159c0 94 -69 159 -151 159c-83 0 -152 -65 -152 -159z" />
    <glyph glyph-name="Obreve" unicode="&#x14e;" horiz-adv-x="820" 
d="M42 360c0 203 158 362 368 362s368 -159 368 -362c0 -209 -158 -372 -368 -372s-368 163 -368 372zM177 360c0 -146 105 -257 233 -257s233 111 233 257c0 140 -105 247 -233 247s-233 -107 -233 -247zM410 753c-79 0 -149 45 -149 128v12h91v-12c0 -40 29 -58 58 -58
c28 0 57 18 57 59v11h92v-12c0 -83 -71 -128 -149 -128z" />
    <glyph glyph-name="obreve" unicode="&#x14f;" horiz-adv-x="629" 
d="M34 255c0 156 125 267 280 267c156 0 281 -111 281 -267c0 -157 -125 -267 -280 -267c-156 0 -281 110 -281 267zM163 255c0 -95 69 -159 152 -159c82 0 151 64 151 159c0 94 -69 159 -151 159c-83 0 -152 -65 -152 -159zM315 569c-79 0 -149 45 -149 128v12h91v-12
c0 -40 29 -58 58 -58c28 0 57 18 57 59v11h92v-12c0 -83 -71 -128 -149 -128z" />
    <glyph glyph-name="Ohungarumlaut" unicode="&#x150;" horiz-adv-x="820" 
d="M433 757l77 136h126l-104 -136h-99zM258 757l71 136h109l-74 -136h-106zM42 360c0 203 158 362 368 362s368 -159 368 -362c0 -209 -158 -372 -368 -372s-368 163 -368 372zM177 360c0 -146 105 -257 233 -257s233 111 233 257c0 140 -105 247 -233 247
s-233 -107 -233 -247z" />
    <glyph glyph-name="hungarumlaut" unicode="&#x2dd;" horiz-adv-x="493" 
d="M233 757l77 136h126l-104 -136h-99zM58 757l71 136h109l-74 -136h-106z" />
    <glyph glyph-name="ohungarumlaut" unicode="&#x151;" horiz-adv-x="629" 
d="M337 573l77 136h126l-104 -136h-99zM162 573l71 136h109l-74 -136h-106zM34 255c0 156 125 267 280 267c156 0 281 -111 281 -267c0 -157 -125 -267 -280 -267c-156 0 -281 110 -281 267zM163 255c0 -95 69 -159 152 -159c82 0 151 64 151 159c0 94 -69 159 -151 159
c-83 0 -152 -65 -152 -159z" />
    <glyph glyph-name="OE" unicode="&#x152;" horiz-adv-x="987" 
d="M42 356c0 204 163 362 373 362c56 0 87 -8 126 -8h383v-183h-105v78h-202v-196h230v-104h-230v-200h217v78h105v-183h-398c-38 0 -70 -9 -126 -9c-210 0 -373 161 -373 365zM175 356c0 -144 101 -257 240 -257c41 0 71 7 71 7v497s-30 8 -71 8
c-139 0 -240 -113 -240 -255z" />
    <glyph glyph-name="oe" unicode="&#x153;" horiz-adv-x="987" 
d="M34 254c0 160 124 268 276 268c99 0 166 -42 211 -105h2c40 64 103 105 201 105c147 0 226 -107 226 -242c0 -15 -3 -44 -3 -44h-351c10 -94 77 -144 152 -144c82 0 147 56 147 56l49 -87s-78 -73 -205 -73c-106 0 -172 45 -213 108h-2c-45 -64 -113 -108 -214 -108
c-152 0 -276 105 -276 266zM599 312h223c-2 66 -44 112 -99 112c-66 0 -112 -45 -124 -112zM162 254c0 -97 69 -158 152 -158c82 0 151 61 151 159c0 97 -70 159 -151 159c-83 0 -152 -63 -152 -160z" />
    <glyph glyph-name="Racute" unicode="&#x154;" horiz-adv-x="717" 
d="M269 757l108 136h138l-135 -136h-111zM50 0v98h85v513h-85v99h313c52 0 95 -3 135 -15c79 -26 131 -90 131 -190c0 -99 -52 -169 -134 -197v-2s21 -11 35 -37l82 -148c10 -18 24 -23 48 -23h23v-98h-83c-59 0 -77 12 -99 53l-101 183c-15 27 -28 36 -69 36h-65v-174h82
v-98h-298zM266 377h118c69 0 114 41 114 117c0 46 -17 82 -56 98c-20 9 -47 13 -80 13h-96v-228z" />
    <glyph glyph-name="racute" unicode="&#x155;" horiz-adv-x="445" 
d="M183 573l108 136h138l-135 -136h-111zM46 0v95h74v298c0 14 -8 22 -22 22h-57v95h133c45 0 68 -19 68 -62v-30c0 -19 -2 -32 -2 -32h2c23 73 84 131 162 131c12 0 23 -2 23 -2v-125s-13 2 -31 2c-103 0 -149 -90 -149 -186v-111h73v-95h-274z" />
    <glyph glyph-name="Rcommaaccent" unicode="&#x156;" horiz-adv-x="717" 
d="M329 -53h106c6 -17 8 -36 8 -52c0 -61 -39 -107 -93 -129l-49 42c26 23 40 49 40 79c0 19 -4 38 -12 60zM50 0v98h85v513h-85v99h313c52 0 95 -3 135 -15c79 -26 131 -90 131 -190c0 -99 -52 -169 -134 -197v-2s21 -11 35 -37l82 -148c10 -18 24 -23 48 -23h23v-98h-83
c-59 0 -77 12 -99 53l-101 183c-15 27 -28 36 -69 36h-65v-174h82v-98h-298zM266 377h118c69 0 114 41 114 117c0 46 -17 82 -56 98c-20 9 -47 13 -80 13h-96v-228z" />
    <glyph glyph-name="rcommaaccent" unicode="&#x157;" horiz-adv-x="445" 
d="M130 -53h106c6 -17 8 -36 8 -52c0 -61 -39 -107 -93 -129l-49 42c26 23 40 49 40 79c0 19 -4 38 -12 60zM46 0v95h74v298c0 14 -8 22 -22 22h-57v95h133c45 0 68 -19 68 -62v-30c0 -19 -2 -32 -2 -32h2c23 73 84 131 162 131c12 0 23 -2 23 -2v-125s-13 2 -31 2
c-103 0 -149 -90 -149 -186v-111h73v-95h-274z" />
    <glyph glyph-name="Rcaron" unicode="&#x158;" horiz-adv-x="717" 
d="M276 757l-92 136h106l50 -81h2l50 81h106l-92 -136h-130zM50 0v98h85v513h-85v99h313c52 0 95 -3 135 -15c79 -26 131 -90 131 -190c0 -99 -52 -169 -134 -197v-2s21 -11 35 -37l82 -148c10 -18 24 -23 48 -23h23v-98h-83c-59 0 -77 12 -99 53l-101 183
c-15 27 -28 36 -69 36h-65v-174h82v-98h-298zM266 377h118c69 0 114 41 114 117c0 46 -17 82 -56 98c-20 9 -47 13 -80 13h-96v-228z" />
    <glyph glyph-name="rcaron" unicode="&#x159;" horiz-adv-x="445" 
d="M190 573l-92 136h106l50 -81h2l50 81h106l-92 -136h-130zM46 0v95h74v298c0 14 -8 22 -22 22h-57v95h133c45 0 68 -19 68 -62v-30c0 -19 -2 -32 -2 -32h2c23 73 84 131 162 131c12 0 23 -2 23 -2v-125s-13 2 -31 2c-103 0 -149 -90 -149 -186v-111h73v-95h-274z" />
    <glyph glyph-name="Sacute" unicode="&#x15a;" horiz-adv-x="595" 
d="M222 757l108 136h138l-135 -136h-111zM48 229h119v-53c0 -46 58 -73 125 -73c72 0 123 31 123 88c0 72 -81 95 -163 127c-95 36 -188 79 -188 206c0 143 116 198 238 198c112 0 225 -43 225 -125v-93h-119v48c0 36 -53 55 -106 55c-58 0 -106 -24 -106 -78
c0 -65 66 -88 140 -116c106 -38 212 -80 212 -213c0 -145 -122 -212 -256 -212c-118 0 -244 53 -244 160v81z" />
    <glyph glyph-name="sacute" unicode="&#x15b;" horiz-adv-x="493" 
d="M178 573l108 136h138l-135 -136h-111zM35 111v59h108v-30c0 -35 47 -53 100 -53c51 0 87 18 87 52c0 43 -48 54 -116 79c-75 26 -161 61 -161 158c0 108 108 146 201 146c74 0 184 -29 184 -106v-65h-109v29c0 26 -30 42 -75 42c-40 0 -74 -14 -74 -46
c0 -42 50 -59 107 -76c78 -25 170 -57 170 -157c0 -103 -98 -155 -215 -155c-93 0 -207 40 -207 123z" />
    <glyph glyph-name="Scircumflex" unicode="&#x15c;" horiz-adv-x="595" 
d="M137 757l92 136h130l92 -136h-106l-50 81h-2l-50 -81h-106zM48 229h119v-53c0 -46 58 -73 125 -73c72 0 123 31 123 88c0 72 -81 95 -163 127c-95 36 -188 79 -188 206c0 143 116 198 238 198c112 0 225 -43 225 -125v-93h-119v48c0 36 -53 55 -106 55
c-58 0 -106 -24 -106 -78c0 -65 66 -88 140 -116c106 -38 212 -80 212 -213c0 -145 -122 -212 -256 -212c-118 0 -244 53 -244 160v81z" />
    <glyph glyph-name="scircumflex" unicode="&#x15d;" horiz-adv-x="493" 
d="M93 573l92 136h130l92 -136h-106l-50 81h-2l-50 -81h-106zM35 111v59h108v-30c0 -35 47 -53 100 -53c51 0 87 18 87 52c0 43 -48 54 -116 79c-75 26 -161 61 -161 158c0 108 108 146 201 146c74 0 184 -29 184 -106v-65h-109v29c0 26 -30 42 -75 42
c-40 0 -74 -14 -74 -46c0 -42 50 -59 107 -76c78 -25 170 -57 170 -157c0 -103 -98 -155 -215 -155c-93 0 -207 40 -207 123z" />
    <glyph glyph-name="Scedilla" unicode="&#x15e;" horiz-adv-x="595" 
d="M233 -100l26 90c-108 8 -211 61 -211 158v81h119v-53c0 -46 58 -73 125 -73c72 0 123 31 123 88c0 72 -81 95 -163 127c-95 36 -188 79 -188 206c0 143 116 198 238 198c112 0 225 -43 225 -125v-93h-119v48c0 36 -53 55 -106 55c-58 0 -106 -24 -106 -78
c0 -65 66 -88 140 -116c106 -38 212 -80 212 -213s-103 -201 -224 -210l-12 -44c46 -3 85 -32 85 -79c0 -65 -62 -90 -122 -90c-32 0 -60 7 -60 7v62s20 -7 46 -7c22 0 50 5 50 30c0 23 -28 31 -58 31h-20z" />
    <glyph glyph-name="scedilla" unicode="&#x15f;" horiz-adv-x="492" 
d="M186 -100l26 90c-86 7 -177 47 -177 121v59h108v-30c0 -35 47 -53 100 -53c51 0 87 17 87 52c0 43 -48 54 -116 79c-75 26 -161 61 -161 158c0 108 108 146 201 146c74 0 184 -29 184 -106v-65h-109v29c0 26 -30 42 -75 42c-40 0 -74 -14 -74 -46c0 -42 50 -59 107 -76
c78 -25 170 -57 170 -157c0 -92 -78 -144 -180 -153l-12 -44c46 -3 85 -32 85 -79c0 -65 -62 -90 -122 -90c-32 0 -60 7 -60 7v62s20 -7 46 -7c22 0 50 5 50 30c0 23 -28 31 -58 31h-20z" />
    <glyph glyph-name="Scaron" unicode="&#x160;" horiz-adv-x="595" 
d="M229 757l-92 136h106l50 -81h2l50 81h106l-92 -136h-130zM48 229h119v-53c0 -46 58 -73 125 -73c72 0 123 31 123 88c0 72 -81 95 -163 127c-95 36 -188 79 -188 206c0 143 116 198 238 198c112 0 225 -43 225 -125v-93h-119v48c0 36 -53 55 -106 55
c-58 0 -106 -24 -106 -78c0 -65 66 -88 140 -116c106 -38 212 -80 212 -213c0 -145 -122 -212 -256 -212c-118 0 -244 53 -244 160v81z" />
    <glyph glyph-name="scaron" unicode="&#x161;" horiz-adv-x="493" 
d="M185 573l-92 136h106l50 -81h2l50 81h106l-92 -136h-130zM35 111v59h108v-30c0 -35 47 -53 100 -53c51 0 87 18 87 52c0 43 -48 54 -116 79c-75 26 -161 61 -161 158c0 108 108 146 201 146c74 0 184 -29 184 -106v-65h-109v29c0 26 -30 42 -75 42c-40 0 -74 -14 -74 -46
c0 -42 50 -59 107 -76c78 -25 170 -57 170 -157c0 -103 -98 -155 -215 -155c-93 0 -207 40 -207 123z" />
    <glyph glyph-name="Tcommaaccent" unicode="&#x162;" horiz-adv-x="676" 
d="M187 0v98h85v507h-134v-107h-111v212h622v-212h-111v107h-135v-507h86v-98h-121l-15 -54c46 -3 85 -32 85 -79c0 -65 -62 -90 -122 -90c-32 0 -60 7 -60 7v62s20 -7 46 -7c22 0 50 5 50 30c0 23 -28 31 -58 31h-20l29 100h-116z" />
    <glyph glyph-name="tcommaaccent" unicode="&#x163;" horiz-adv-x="383" 
d="M160 -100l34 119c-51 24 -94 73 -94 168v228h-79v95h82v139h124v-139h116v-95h-116v-215c0 -87 66 -99 101 -99c14 0 23 1 23 1v-104s-16 -3 -39 -3c-17 0 -37 2 -58 5l-15 -54c46 -3 86 -32 86 -79c0 -65 -63 -90 -123 -90c-32 0 -60 7 -60 7v62s20 -7 46 -7
c22 0 50 5 50 30c0 23 -27 31 -58 31h-20z" />
    <glyph glyph-name="Tcaron" unicode="&#x164;" horiz-adv-x="676" 
d="M273 757l-92 136h106l50 -81h2l50 81h106l-92 -136h-130zM187 0v98h85v507h-134v-107h-111v212h622v-212h-111v107h-135v-507h86v-98h-302z" />
    <glyph glyph-name="tcaron" unicode="&#x165;" horiz-adv-x="381" 
d="M312 732h106c6 -17 8 -36 8 -52c0 -61 -39 -107 -93 -129l-49 42c26 23 40 49 40 79c0 19 -4 38 -12 60zM98 187v228h-78v95h82v139h123v-139h116v-95h-116v-215c0 -87 66 -99 102 -99c14 0 23 1 23 1v-104s-16 -3 -39 -3c-72 0 -213 21 -213 192z" />
    <glyph glyph-name="Tbar" unicode="&#x166;" horiz-adv-x="676" 
d="M99 299v87h173v219h-134v-107h-111v212h622v-212h-111v107h-135v-219h174v-87h-174v-201h86v-98h-302v98h85v201h-173z" />
    <glyph glyph-name="tbar" unicode="&#x167;" horiz-adv-x="381" 
d="M22 247v87h76v88h-78v88h82v139h123v-139h116v-88h-116v-88h110v-87h-110v-47c0 -87 66 -99 102 -99c14 0 23 1 23 1v-104s-16 -3 -39 -3c-72 0 -213 21 -213 192v60h-76z" />
    <glyph glyph-name="Utilde" unicode="&#x168;" horiz-adv-x="809" 
d="M116 267v344h-85v99h302v-99h-86v-344c0 -40 9 -76 24 -101c25 -40 74 -63 134 -63c59 0 107 22 133 64c16 27 24 60 24 101v343h-85v99h301v-99h-85v-344c0 -69 -19 -133 -52 -178c-52 -68 -141 -101 -236 -101c-101 0 -187 37 -236 100c-37 46 -53 108 -53 179z
M222 758c0 91 37 137 112 137c70 0 87 -64 127 -64c29 0 39 29 39 61h88c0 -90 -38 -137 -113 -137c-70 0 -87 64 -127 64c-28 0 -38 -28 -38 -61h-88z" />
    <glyph glyph-name="utilde" unicode="&#x169;" horiz-adv-x="677" 
d="M101 182v233h-79v95h206v-306c0 -61 16 -103 80 -103c88 0 141 90 141 182v132h-78v95h205v-394c0 -14 8 -22 22 -22h49v-94h-126c-45 0 -66 21 -66 57v19c0 13 1 24 1 24h-2c-6 -17 -58 -112 -186 -112c-102 0 -167 55 -167 194zM142 574c0 91 37 137 112 137
c70 0 87 -64 127 -64c29 0 39 29 39 61h88c0 -90 -38 -137 -113 -137c-70 0 -87 64 -127 64c-28 0 -38 -28 -38 -61h-88z" />
    <glyph glyph-name="Umacron" unicode="&#x16a;" horiz-adv-x="809" 
d="M116 267v344h-85v99h302v-99h-86v-344c0 -40 9 -76 24 -101c25 -40 74 -63 134 -63c59 0 107 22 133 64c16 27 24 60 24 101v343h-85v99h301v-99h-85v-344c0 -69 -19 -133 -52 -178c-52 -68 -141 -101 -236 -101c-101 0 -187 37 -236 100c-37 46 -53 108 -53 179z
M274 783v87h262v-87h-262z" />
    <glyph glyph-name="umacron" unicode="&#x16b;" horiz-adv-x="677" 
d="M101 182v233h-79v95h206v-306c0 -61 16 -103 80 -103c88 0 141 90 141 182v132h-78v95h205v-394c0 -14 8 -22 22 -22h49v-94h-126c-45 0 -66 21 -66 57v19c0 13 1 24 1 24h-2c-6 -17 -58 -112 -186 -112c-102 0 -167 55 -167 194zM194 599v87h262v-87h-262z" />
    <glyph glyph-name="Ubreve" unicode="&#x16c;" horiz-adv-x="809" 
d="M116 267v344h-85v99h302v-99h-86v-344c0 -40 9 -76 24 -101c25 -40 74 -63 134 -63c59 0 107 22 133 64c16 27 24 60 24 101v343h-85v99h301v-99h-85v-344c0 -69 -19 -133 -52 -178c-52 -68 -141 -101 -236 -101c-101 0 -187 37 -236 100c-37 46 -53 108 -53 179z
M405 753c-79 0 -149 45 -149 128v12h91v-12c0 -40 29 -58 58 -58c28 0 57 18 57 59v11h92v-12c0 -83 -71 -128 -149 -128z" />
    <glyph glyph-name="ubreve" unicode="&#x16d;" horiz-adv-x="677" 
d="M101 182v233h-79v95h206v-306c0 -61 16 -103 80 -103c88 0 141 90 141 182v132h-78v95h205v-394c0 -14 8 -22 22 -22h49v-94h-126c-45 0 -66 21 -66 57v19c0 13 1 24 1 24h-2c-6 -17 -58 -112 -186 -112c-102 0 -167 55 -167 194zM325 569c-79 0 -149 45 -149 128v12h91
v-12c0 -40 29 -58 58 -58c28 0 57 18 57 59v11h92v-12c0 -83 -71 -128 -149 -128z" />
    <glyph glyph-name="Uring" unicode="&#x16e;" horiz-adv-x="809" 
d="M405 742c-51 0 -102 29 -102 85s51 86 102 86c52 0 103 -30 103 -86s-51 -85 -103 -85zM405 790c23 0 37 15 37 37c0 24 -14 39 -37 39c-21 0 -36 -15 -36 -39c0 -22 14 -37 36 -37zM116 267v344h-85v99h302v-99h-86v-344c0 -40 9 -76 24 -101c25 -40 74 -63 134 -63
c59 0 107 22 133 64c16 27 24 60 24 101v343h-85v99h301v-99h-85v-344c0 -69 -19 -133 -52 -178c-52 -68 -141 -101 -236 -101c-101 0 -187 37 -236 100c-37 46 -53 108 -53 179z" />
    <glyph glyph-name="uring" unicode="&#x16f;" horiz-adv-x="677" 
d="M325 558c-51 0 -102 29 -102 85s51 86 102 86c52 0 103 -30 103 -86s-51 -85 -103 -85zM325 606c23 0 37 15 37 37c0 24 -14 39 -37 39c-21 0 -36 -15 -36 -39c0 -22 14 -37 36 -37zM101 182v233h-79v95h206v-306c0 -61 16 -103 80 -103c88 0 141 90 141 182v132h-78v95
h205v-394c0 -14 8 -22 22 -22h49v-94h-126c-45 0 -66 21 -66 57v19c0 13 1 24 1 24h-2c-6 -17 -58 -112 -186 -112c-102 0 -167 55 -167 194z" />
    <glyph glyph-name="Uhungarumlaut" unicode="&#x170;" horiz-adv-x="809" 
d="M116 267v344h-85v99h302v-99h-86v-344c0 -40 9 -76 24 -101c25 -40 74 -63 134 -63c59 0 107 22 133 64c16 27 24 60 24 101v343h-85v99h301v-99h-85v-344c0 -69 -19 -133 -52 -178c-52 -68 -141 -101 -236 -101c-101 0 -187 37 -236 100c-37 46 -53 108 -53 179z
M427 757l77 136h126l-104 -136h-99zM252 757l71 136h109l-74 -136h-106z" />
    <glyph glyph-name="uhungarumlaut" unicode="&#x171;" horiz-adv-x="677" 
d="M101 182v233h-79v95h206v-306c0 -61 16 -103 80 -103c88 0 141 90 141 182v132h-78v95h205v-394c0 -14 8 -22 22 -22h49v-94h-126c-45 0 -66 21 -66 57v19c0 13 1 24 1 24h-2c-6 -17 -58 -112 -186 -112c-102 0 -167 55 -167 194zM347 573l77 136h126l-104 -136h-99z
M172 573l71 136h109l-74 -136h-106z" />
    <glyph glyph-name="Uogonek" unicode="&#x172;" horiz-adv-x="809" 
d="M116 255v356h-85v99h301v-99h-85v-355c0 -97 62 -153 157 -153s158 56 158 153v355h-85v99h301v-99h-85v-356c0 -115 -64 -198 -160 -246c-14 -7 -77 -48 -77 -108c0 -30 30 -43 61 -45l-22 -85c-61 7 -134 36 -134 107c0 42 24 82 55 111c-173 -5 -300 97 -300 266z" />
    <glyph glyph-name="uogonek" unicode="&#x173;" horiz-adv-x="677" 
d="M470 -122c0 48 29 93 67 122h-18c-42 0 -64 22 -64 57v19c0 13 1 24 1 24h-2c-6 -17 -59 -112 -184 -112c-105 0 -169 55 -169 194v233h-79v95h206v-306c0 -61 16 -103 79 -103c92 0 142 92 142 182v132h-78v95h205v-394c0 -14 8 -22 22 -22h49v-94h-4
c-24 0 -79 -56 -79 -99c0 -30 31 -43 61 -45l-22 -85c-61 7 -133 36 -133 107z" />
    <glyph glyph-name="Wcircumflex" unicode="&#x174;" horiz-adv-x="1017" 
d="M352 757l92 136h130l92 -136h-106l-50 81h-2l-50 -81h-106zM14 611v99h277v-99h-83l92 -405c6 -29 8 -62 8 -62h4s3 33 11 62l133 504h105l133 -504c8 -29 11 -62 11 -62h4s2 33 8 62l92 405h-83v99h277v-99h-65l-151 -611h-147l-119 448c-8 29 -11 65 -11 65h-3
s-3 -36 -11 -65l-119 -448h-147l-151 611h-65z" />
    <glyph glyph-name="wcircumflex" unicode="&#x175;" horiz-adv-x="867" 
d="M278 573l92 136h130l92 -136h-106l-50 81h-2l-50 -81h-106zM12 415v95h245v-95h-61l67 -249c6 -25 8 -55 8 -55h3s2 30 8 55l96 343h112l95 -343c6 -25 8 -55 8 -55h3s2 30 8 55l68 249h-62v95h245v-95h-61l-118 -415h-144l-88 299c-7 26 -9 56 -9 56h-3s-2 -30 -9 -56
l-87 -299h-144l-118 415h-62z" />
    <glyph glyph-name="Ycircumflex" unicode="&#x176;" horiz-adv-x="658" 
d="M178 0v98h86v199l-189 314h-65v99h264v-99h-69l108 -186c10 -17 15 -32 15 -32h2s6 15 16 32l108 186h-68v99h262v-99h-64l-189 -314v-199h85v-98h-302zM174 757l92 136h130l92 -136h-106l-50 81h-2l-50 -81h-106z" />
    <glyph glyph-name="ycircumflex" unicode="&#x177;" horiz-adv-x="606" 
d="M65 -82c0 0 30 -24 77 -24c41 0 74 22 90 59l14 32l-175 430h-61v95h251v-95h-60l93 -258c9 -25 11 -53 11 -53h3s4 28 14 53l92 258h-59v95h241v-95h-58l-188 -481c-39 -101 -115 -144 -202 -144c-74 0 -124 35 -124 35zM151 573l92 136h130l92 -136h-106l-50 81h-2
l-50 -81h-106z" />
    <glyph glyph-name="Ydieresis" unicode="&#x178;" horiz-adv-x="658" 
d="M178 0v98h86v199l-189 314h-65v99h264v-99h-69l108 -186c10 -17 15 -32 15 -32h2s6 15 16 32l108 186h-68v99h262v-99h-64l-189 -314v-199h85v-98h-302zM388 777v116h104v-116h-104zM171 777v116h104v-116h-104z" />
    <glyph glyph-name="Zacute" unicode="&#x179;" horiz-adv-x="643" 
d="M258 757l108 136h138l-135 -136h-111zM52 0v83l341 489c14 20 30 34 30 34v2s-21 -3 -41 -3h-214v-107h-111v212h524v-82l-341 -490c-14 -20 -30 -34 -30 -34v-2s21 3 41 3h229v110h112v-215h-540z" />
    <glyph glyph-name="zacute" unicode="&#x17a;" horiz-adv-x="538" 
d="M199 573l108 136h138l-135 -136h-111zM46 81l258 305c15 18 29 29 29 29v2s-23 -2 -43 -2h-133v-74h-108v169h435v-82l-256 -304c-15 -18 -29 -29 -29 -29v-2s22 2 42 2h144v73h109v-168h-448v81z" />
    <glyph glyph-name="Zdotaccent" unicode="&#x17b;" horiz-adv-x="643" 
d="M52 0v83l341 489c14 20 30 34 30 34v2s-21 -3 -41 -3h-214v-107h-111v212h524v-82l-341 -490c-14 -20 -30 -34 -30 -34v-2s21 3 41 3h229v110h112v-215h-540zM274 782v111h112v-111h-112z" />
    <glyph glyph-name="zdotaccent" unicode="&#x17c;" horiz-adv-x="538" 
d="M46 81l258 305c15 18 29 29 29 29v2s-23 -2 -43 -2h-133v-74h-108v169h435v-82l-256 -304c-15 -18 -29 -29 -29 -29v-2s22 2 42 2h144v73h109v-168h-448v81zM216 598v111h112v-111h-112z" />
    <glyph glyph-name="Zcaron" unicode="&#x17d;" horiz-adv-x="643" 
d="M265 757l-92 136h106l50 -81h2l50 81h106l-92 -136h-130zM52 0v83l341 489c14 20 30 34 30 34v2s-21 -3 -41 -3h-214v-107h-111v212h524v-82l-341 -490c-14 -20 -30 -34 -30 -34v-2s21 3 41 3h229v110h112v-215h-540z" />
    <glyph glyph-name="zcaron" unicode="&#x17e;" horiz-adv-x="538" 
d="M206 573l-92 136h106l50 -81h2l50 81h106l-92 -136h-130zM46 81l258 305c15 18 29 29 29 29v2s-23 -2 -43 -2h-133v-74h-108v169h435v-82l-256 -304c-15 -18 -29 -29 -29 -29v-2s22 2 42 2h144v73h109v-168h-448v81z" />
    <glyph glyph-name="longs" unicode="&#x17f;" horiz-adv-x="353" 
d="M46 0v95h71v320h-76v95h76v23c0 165 135 186 205 186c31 0 52 -3 52 -3v-105s-13 3 -38 3c-32 0 -93 -7 -93 -78v-441h83v-95h-280z" />
    <glyph glyph-name="florin" unicode="&#x192;" horiz-adv-x="527" 
d="M-7 -2c0 0 45 -6 67 -6c36 0 99 11 106 92l21 250h-74v101h83l9 97c16 168 153 190 226 190c35 0 85 -8 85 -8v-108s-53 7 -78 7c-36 0 -99 -12 -106 -93l-9 -85h109v-101h-118l-22 -262c-15 -168 -153 -189 -224 -189c-33 0 -75 7 -75 7v108z" />
    <glyph glyph-name="Scommaaccent" unicode="&#x218;" horiz-adv-x="595" 
d="M243 -53h106c6 -17 8 -36 8 -52c0 -61 -39 -107 -93 -129l-49 42c26 23 40 49 40 79c0 19 -4 38 -12 60zM48 229h119v-53c0 -46 58 -73 125 -73c72 0 123 31 123 88c0 72 -81 95 -163 127c-95 36 -188 79 -188 206c0 143 116 198 238 198c112 0 225 -43 225 -125v-93
h-119v48c0 36 -53 55 -106 55c-58 0 -106 -24 -106 -78c0 -65 66 -88 140 -116c106 -38 212 -80 212 -213c0 -145 -122 -212 -256 -212c-118 0 -244 53 -244 160v81z" />
    <glyph glyph-name="scommaaccent" unicode="&#x219;" horiz-adv-x="493" 
d="M197 -53h106c6 -17 8 -36 8 -52c0 -61 -39 -107 -93 -129l-49 42c26 23 40 49 40 79c0 19 -4 38 -12 60zM35 111v59h108v-30c0 -35 47 -53 100 -53c51 0 87 18 87 52c0 43 -48 54 -116 79c-75 26 -161 61 -161 158c0 108 108 146 201 146c74 0 184 -29 184 -106v-65h-109
v29c0 26 -30 42 -75 42c-40 0 -74 -14 -74 -46c0 -42 50 -59 107 -76c78 -25 170 -57 170 -157c0 -103 -98 -155 -215 -155c-93 0 -207 40 -207 123z" />
    <glyph glyph-name="uni021A" unicode="&#x21a;" horiz-adv-x="676" 
d="M285 -53h106c6 -17 8 -36 8 -52c0 -61 -39 -107 -93 -129l-49 42c26 23 40 49 40 79c0 19 -4 38 -12 60zM187 0v98h85v507h-134v-107h-111v212h622v-212h-111v107h-135v-507h86v-98h-302z" />
    <glyph glyph-name="uni021B" unicode="&#x21b;" horiz-adv-x="381" 
d="M176 -53h106c6 -17 8 -36 8 -52c0 -61 -39 -107 -93 -129l-49 42c26 23 40 49 40 79c0 19 -4 38 -12 60zM98 187v228h-78v95h82v139h123v-139h116v-95h-116v-215c0 -87 66 -99 102 -99c14 0 23 1 23 1v-104s-16 -3 -39 -3c-72 0 -213 21 -213 192z" />
    <glyph glyph-name="ogonek" unicode="&#x2db;" horiz-adv-x="494" 
d="M152 -122c0 65 59 122 100 143h75v-21c-24 0 -80 -55 -80 -99c0 -30 30 -43 61 -45l-22 -85c-61 7 -134 36 -134 107z" />
    <glyph glyph-name="uni1E9E" unicode="&#x1e9e;" horiz-adv-x="736" 
d="M35 0v98h85v385c0 133 95 227 231 227h293v-89l-114 -174c-11 -17 -21 -27 -21 -27v-2c110 -25 185 -101 185 -202c0 -115 -86 -225 -266 -225c-39 0 -74 6 -97 10v112c19 -4 48 -9 81 -9c110 0 150 54 150 111c0 55 -36 102 -181 112v78l102 165c11 18 23 29 23 29v2
s-16 -2 -33 -2h-119c-60 0 -103 -49 -103 -113v-486h-216z" />
    <glyph glyph-name="endash" unicode="&#x2013;" horiz-adv-x="720" 
d="M83 236v99h554v-99h-554z" />
    <glyph glyph-name="emdash" unicode="&#x2014;" horiz-adv-x="920" 
d="M83 236v99h754v-99h-754z" />
    <glyph glyph-name="quoteleft" unicode="&#x2018;" horiz-adv-x="240" 
d="M40 490l78 232h90l-51 -232h-117z" />
    <glyph glyph-name="quoteright" unicode="&#x2019;" horiz-adv-x="232" 
d="M44 490l51 232h116l-78 -232h-89z" />
    <glyph glyph-name="quotesinglbase" unicode="&#x201a;" horiz-adv-x="257" 
d="M32 -103l50 232h114l-78 -232h-86z" />
    <glyph glyph-name="quotedblleft" unicode="&#x201c;" horiz-adv-x="407" 
d="M40 490l78 232h90l-51 -232h-117zM207 490l78 232h90l-51 -232h-117z" />
    <glyph glyph-name="quotedblright" unicode="&#x201d;" horiz-adv-x="400" 
d="M211 490l50 232h118l-78 -232h-90zM44 490l51 232h117l-78 -232h-90z" />
    <glyph glyph-name="quotedblbase" unicode="&#x201e;" horiz-adv-x="420" 
d="M195 -103l50 232h114l-78 -232h-86zM32 -103l50 232h114l-78 -232h-86z" />
    <glyph glyph-name="dagger" unicode="&#x2020;" horiz-adv-x="449" 
d="M162 -50v461h-124v99h124v200h122v-200h127v-99h-127v-461h-122z" />
    <glyph glyph-name="daggerdbl" unicode="&#x2021;" horiz-adv-x="460" 
d="M44 163v98h124v150h-124v99h124v200h122v-200h126v-99h-126v-150h126v-98h-126v-213h-122v213h-124z" />
    <glyph glyph-name="bullet" unicode="&#x2022;" horiz-adv-x="424" 
d="M212 124c-92 0 -167 75 -167 167s75 167 167 167s167 -75 167 -167s-75 -167 -167 -167z" />
    <glyph glyph-name="ellipsis" unicode="&#x2026;" horiz-adv-x="833" 
d="M639 0v128h124v-128h-124zM354 0v128h124v-128h-124zM70 0v128h123v-128h-123z" />
    <glyph glyph-name="perthousand" unicode="&#x2030;" horiz-adv-x="1165" 
d="M209 406c-90 0 -163 70 -163 158c0 86 73 158 163 158c91 0 164 -72 164 -158c0 -88 -73 -158 -164 -158zM72 0l544 710h117l-545 -710h-116zM209 498c38 0 67 29 67 66c0 36 -29 66 -67 66c-37 0 -66 -30 -66 -66c0 -37 29 -66 66 -66zM807 145c0 86 73 158 163 158
s164 -72 164 -158c0 -87 -74 -157 -164 -157s-163 70 -163 157zM434 145c0 86 73 158 163 158s164 -72 164 -158c0 -87 -74 -157 -164 -157s-163 70 -163 157zM904 146c0 -37 29 -66 66 -66s67 29 67 66c0 36 -30 66 -67 66s-66 -30 -66 -66zM531 146c0 -37 29 -66 66 -66
s67 29 67 66c0 36 -30 66 -67 66s-66 -30 -66 -66z" />
    <glyph glyph-name="guilsinglleft" unicode="&#x2039;" horiz-adv-x="372" 
d="M201 77l-164 205l164 206h121l-164 -206l164 -205h-121z" />
    <glyph glyph-name="guilsinglright" unicode="&#x203a;" horiz-adv-x="372" 
d="M50 77l164 205l-164 206h121l164 -206l-164 -205h-121z" />
    <glyph glyph-name="Euro" unicode="&#x20ac;" horiz-adv-x="604" 
d="M41 243v73h56c-3 23 -3 55 -1 82h-55v73h69c43 145 175 251 340 251c57 0 107 -13 107 -13l-30 -111s-39 11 -80 11c-96 0 -168 -56 -199 -138h254l-16 -73h-256c-3 -27 -2 -54 1 -82h240l-16 -73h-202c32 -83 106 -140 199 -140c50 0 94 14 94 14l22 -111
s-51 -18 -118 -18c-171 0 -299 107 -340 255h-69z" />
    <glyph glyph-name="trademark" unicode="&#x2122;" horiz-adv-x="964" 
d="M443 267l35 443h88l92 -209c7 -17 13 -42 13 -42h2s7 25 14 42l92 209h88l34 -443h-96l-16 228c-1 15 1 31 1 31h-2l-78 -178h-75l-78 178h-2s2 -16 1 -31l-18 -228h-95zM173 267v359h-148v84h391v-84h-147v-359h-96z" />
    <glyph glyph-name="minus" unicode="&#x2212;" horiz-adv-x="619" 
d="M45 236v99h528v-99h-528z" />
    <glyph glyph-name="infinity" unicode="&#x221e;" horiz-adv-x="496" 
d="M249 157c-106 0 -192 87 -192 192c0 106 86 191 192 191c105 0 190 -85 190 -191c0 -105 -85 -192 -190 -192z" />
    <glyph glyph-name="approxequal" unicode="&#x2248;" horiz-adv-x="619" 
d="M103 322l-49 74c37 38 94 76 156 76c94 0 127 -70 198 -70c40 0 81 26 107 55l50 -75c-37 -37 -94 -76 -157 -76c-94 0 -127 70 -198 70c-41 0 -80 -26 -107 -54zM103 117l-49 75c37 37 94 75 156 75c94 0 127 -70 198 -70c40 0 81 26 107 55l50 -75
c-37 -36 -94 -75 -157 -75c-94 0 -127 70 -198 70c-41 0 -80 -27 -107 -55z" />
    <glyph glyph-name="notequal" unicode="&#x2260;" horiz-adv-x="619" 
d="M117 63l49 71h-101v98h165l74 107h-239v98h304l76 112l61 -40l-50 -72h97v-98h-161l-74 -107h235v-98h-299l-75 -110z" />
    <glyph glyph-name="lessequal" unicode="&#x2264;" horiz-adv-x="619" 
d="M53 245v82l481 214v-111l-347 -143v-2l347 -143v-111zM55 -85h479v-98h-479v98z" />
    <glyph glyph-name="greaterequal" unicode="&#x2265;" horiz-adv-x="619" 
d="M84 31v111l346 143v2l-346 143v111l481 -214v-82zM84 -85h479v-98h-479v98z" />
    <glyph glyph-name="apple" horiz-adv-x="1130" 
d="M168 -5v152l-126 72v278l126 71v151l265 142l134 -71l132 71l265 -142v-151l124 -71v-278l-124 -72v-152l-265 -141l-132 71l-134 -71zM208 30l238 -126l121 66l118 -66l238 126v139l114 64v249l-114 66v136l-238 126l-118 -64l-121 64l-238 -126v-136l-114 -66v-249
l114 -64v-139zM242 64v121l-99 60v225l99 58v123l215 114l110 -59l107 59l214 -114v-123l100 -58v-225l-100 -60v-121l-214 -114l-107 58l-110 -58zM433 91h99v191h194v84h-194v151h125c18 0 21 -8 21 -24v-29h89v86c0 35 -12 51 -51 51h-337v-84h54v-426z" />
    <glyph glyph-name="zero.tnum" 
d="M292 -12c-195 0 -258 164 -258 368s63 366 258 366c194 0 257 -162 257 -366s-63 -368 -257 -368zM292 103c97 0 125 111 125 253c0 140 -28 251 -125 251c-98 0 -125 -111 -125 -251c0 -142 27 -253 125 -253z" />
    <glyph glyph-name="one.tnum" 
d="M89 0v105h155v400c0 24 1 48 1 48h-2s-8 -17 -31 -40l-57 -54l-76 80l178 171h113v-605h153v-105h-434z" />
    <glyph glyph-name="two.tnum" 
d="M46 0c-4 23 -7 43 -7 63c0 256 340 290 340 443c0 67 -48 101 -108 101c-83 0 -134 -89 -134 -89l-90 62s65 142 235 142c125 0 232 -76 232 -210c0 -220 -330 -261 -333 -407h245v90h112v-195h-492z" />
    <glyph glyph-name="three.tnum" 
d="M65 521v189h448v-91l-167 -198c91 -14 183 -78 183 -200c0 -121 -91 -233 -253 -233c-150 0 -235 95 -235 95l64 92s69 -72 163 -72c74 0 128 48 128 113c0 70 -58 112 -139 112c-16 0 -31 -2 -39 -2l-29 63l154 188c13 15 30 29 30 29v2s-23 -3 -40 -3h-156v-84h-112z
" />
    <glyph glyph-name="four.tnum" 
d="M9 183v79l307 448h153v-426h91v-101h-91v-183h-128v183h-332zM316 528l-173 -242v-2h198v237c0 26 6 61 6 61h-3s-12 -29 -28 -54z" />
    <glyph glyph-name="five.tnum" 
d="M43 79l62 93s63 -69 158 -69c78 0 140 51 140 123s-53 123 -144 123c-71 0 -115 -32 -115 -32l-72 27l33 366h386v-189h-112v84h-162l-14 -139c-1 -14 -4 -28 -4 -28h2s31 16 86 16c153 0 248 -99 248 -225c0 -136 -109 -241 -264 -241c-148 0 -228 91 -228 91z" />
    <glyph glyph-name="six.tnum" 
d="M314 -12c-153 0 -274 123 -274 332c0 196 107 402 332 402c85 0 142 -30 142 -30l-37 -108s-45 23 -101 23c-112 0 -173 -95 -191 -194h2c27 30 83 50 140 50c138 0 229 -109 229 -235c0 -133 -100 -240 -242 -240zM174 268c0 -74 58 -165 139 -165c68 0 110 52 110 126
c0 70 -43 129 -139 129c-63 0 -110 -37 -110 -90z" />
    <glyph glyph-name="seven.tnum" 
d="M105 0l283 567c12 26 24 39 24 39v2s-20 -3 -46 -3h-202v-84h-111v189h497v-90l-311 -620h-134z" />
    <glyph glyph-name="eight.tnum" 
d="M38 201c0 105 87 170 110 186c-48 34 -82 78 -82 142c0 96 73 193 227 193c135 0 234 -75 234 -192c0 -91 -65 -162 -80 -178c56 -34 97 -83 97 -154c0 -107 -92 -210 -251 -210c-154 0 -255 97 -255 213zM193 527c0 -69 76 -94 161 -130c12 16 48 60 48 118
c0 61 -43 95 -108 95c-67 0 -101 -37 -101 -83zM167 215c0 -69 57 -115 126 -115c64 0 120 41 120 100c0 68 -76 89 -178 135c-19 -17 -68 -56 -68 -120z" />
    <glyph glyph-name="nine.tnum" 
d="M28 482c0 133 100 240 242 240c153 0 274 -124 274 -332c0 -193 -105 -402 -333 -402c-85 0 -143 30 -143 30l37 108s46 -23 102 -23c114 0 174 94 192 195h-2c-27 -29 -83 -49 -140 -49c-138 0 -229 109 -229 233zM161 482c0 -70 44 -127 135 -127c62 0 114 37 114 91
c0 78 -64 161 -140 161c-66 0 -109 -55 -109 -125z" />
    <glyph glyph-name="hyphen.case" horiz-adv-x="459" 
d="M79 292v111h301v-111h-301z" />
    <glyph glyph-name="parenleft.case" horiz-adv-x="330" 
d="M182 -65c-74 121 -119 274 -119 438c0 144 43 278 119 398h107c-73 -123 -113 -258 -113 -399c0 -149 39 -299 113 -437h-107z" />
    <glyph glyph-name="parenright.case" horiz-adv-x="330" 
d="M41 -65c74 138 113 288 113 437c0 141 -40 276 -113 399h107c76 -120 119 -254 119 -398c0 -164 -45 -317 -119 -438h-107z" />
    <glyph glyph-name="bracketleft.case" horiz-adv-x="330" 
d="M91 -65v836h197v-92h-89v-652h89v-92h-197z" />
    <glyph glyph-name="bracketright.case" horiz-adv-x="330" 
d="M42 27h89v652h-89v92h197v-836h-197v92z" />
    <glyph glyph-name="braceleft.case" horiz-adv-x="356" 
d="M115 101v97c0 100 -85 104 -85 104v111s85 4 85 106v86c0 152 120 169 177 169c18 0 31 -1 31 -1v-94s-8 1 -18 1c-27 0 -81 -9 -81 -85v-109c0 -100 -83 -127 -83 -127v-2s83 -23 83 -126v-120c0 -77 54 -85 81 -85c10 0 18 1 18 1v-94s-13 -2 -31 -2
c-57 0 -177 17 -177 170z" />
    <glyph glyph-name="braceright.case" horiz-adv-x="356" 
d="M33 27c0 0 8 -1 18 -1c27 0 81 8 81 85v120c0 103 82 126 82 126v2s-82 27 -82 127v109c0 76 -54 85 -81 85c-10 0 -18 -1 -18 -1v94s13 1 31 1c56 0 177 -17 177 -169v-86c0 -102 85 -106 85 -106v-111s-85 -4 -85 -104v-97c0 -153 -121 -170 -177 -170
c-18 0 -31 2 -31 2v94z" />
    <glyph glyph-name="at.case" horiz-adv-x="783" 
d="M34 353c0 208 164 372 376 372c204 0 275 -102 275 -217v-250h72v-91h-276c-135 0 -215 90 -215 186c0 95 78 183 215 183h84c-1 52 -64 88 -151 88c-145 0 -255 -129 -255 -271c0 -146 104 -268 271 -268v-99c-238 0 -396 162 -396 367zM392 356c0 -54 38 -98 97 -98h76
v196h-74c-61 0 -99 -45 -99 -98z" />
    <glyph glyph-name="guillemotleft.case" horiz-adv-x="598" 
d="M426 137l-164 205l164 206h121l-164 -206l164 -205h-121zM201 137l-164 205l164 206h121l-164 -206l164 -205h-121z" />
    <glyph glyph-name="guillemotright.case" horiz-adv-x="597" 
d="M276 137l164 205l-164 206h120l164 -206l-164 -205h-120zM51 137l164 205l-164 206h121l164 -206l-164 -205h-121z" />
    <glyph glyph-name="guilsinglleft.case" horiz-adv-x="373" 
d="M201 137l-164 205l164 206h121l-164 -206l164 -205h-121z" />
    <glyph glyph-name="guilsinglright.case" horiz-adv-x="373" 
d="M51 137l164 205l-164 206h121l164 -206l-164 -205h-121z" />
    <glyph glyph-name="endash.case" horiz-adv-x="718" 
d="M82 296v99h554v-99h-554z" />
    <glyph glyph-name="emdash.case" horiz-adv-x="918" 
d="M82 296v99h754v-99h-754z" />
    <glyph glyph-name="periodcentered.case" horiz-adv-x="278" 
d="M77 281v129h124v-129h-124z" />
    <glyph glyph-name="questiondown.case" horiz-adv-x="444" 
d="M199 591v119h123v-119h-123zM25 176c0 164 174 184 174 292v37h123v-46c0 -145 -165 -169 -165 -271c0 -47 42 -84 97 -84c57 0 107 43 107 43l70 -88s-69 -71 -188 -71c-113 0 -218 69 -218 188z" />
    <glyph glyph-name="exclamdown.case" horiz-adv-x="311" 
d="M94 591v119h123v-119h-123zM90 0l10 505h111l11 -505h-132z" />
    <glyph glyph-name="bullet.case" horiz-adv-x="424" 
d="M212 187c-93 0 -167 75 -167 167c0 93 74 167 167 167c92 0 167 -74 167 -167c0 -92 -75 -167 -167 -167z" />
    <glyph glyph-name="zero.p_osf" horiz-adv-x="597" 
d="M52 274c0 144 74 288 247 288c172 0 246 -145 246 -289s-74 -285 -246 -285c-173 0 -247 143 -247 286zM180 275c0 -89 33 -179 119 -179c85 0 118 89 118 178s-33 180 -118 180c-86 0 -119 -90 -119 -179z" />
    <glyph glyph-name="one.p_osf" horiz-adv-x="486" 
d="M57 0v101h149v256c0 27 1 65 1 65h-2s-15 -16 -38 -30l-77 -45l-59 87l188 116h110v-449h136v-101h-408z" />
    <glyph glyph-name="two.p_osf" horiz-adv-x="559" 
d="M62 0v86c136 88 292 196 292 284c0 61 -47 84 -96 84c-78 0 -146 -72 -146 -72l-65 79s84 101 228 101c113 0 208 -66 208 -175c0 -120 -111 -208 -245 -288v-2s22 4 63 4h208v-101h-447z" />
    <glyph glyph-name="three.p_osf" horiz-adv-x="530" 
d="M25 -39l61 86s61 -67 151 -67c71 0 124 43 124 106c0 66 -57 103 -139 103c-16 0 -38 -2 -38 -2l-26 61l146 179c14 15 30 29 30 29v2s-23 -3 -40 -3h-140v-79h-105v174h421v-83l-160 -190c85 -13 179 -70 179 -186c0 -118 -89 -219 -245 -219c-143 0 -219 89 -219 89z
" />
    <glyph glyph-name="four.p_osf" horiz-adv-x="592" 
d="M21 33v75l289 442h157v-420h95v-97h-95v-149h-124v149h-322zM150 130h193v240c0 27 5 62 5 62h-3s-12 -29 -27 -54z" />
    <glyph glyph-name="five.p_osf" horiz-adv-x="526" 
d="M21 -39l59 87s60 -64 148 -64c67 0 135 39 135 116c0 75 -65 113 -136 113c-63 0 -111 -28 -111 -28l-68 25l33 340h368v-174h-108v79h-152l-11 -122c-2 -18 -5 -34 -5 -34h2s31 14 82 14c138 0 235 -85 235 -212c0 -132 -109 -225 -254 -225c-142 0 -217 85 -217 85z
" />
    <glyph glyph-name="six.p_osf" horiz-adv-x="587" 
d="M46 298c0 177 102 380 322 380c92 0 147 -28 147 -28l-38 -101s-46 21 -102 21c-110 0 -172 -93 -189 -185h2c25 30 86 49 136 49c140 0 226 -101 226 -221c0 -123 -91 -225 -232 -225c-149 0 -272 109 -272 310zM177 261c0 -81 58 -165 141 -165c67 0 106 48 106 116
c0 67 -45 122 -130 122c-65 0 -117 -32 -117 -73z" />
    <glyph glyph-name="seven.p_osf" horiz-adv-x="529" 
d="M78 -116l272 533c13 26 24 39 24 39v2s-20 -3 -45 -3h-188v-79h-108v174h476v-85l-297 -581h-134z" />
    <glyph glyph-name="eight.p_osf" horiz-adv-x="589" 
d="M44 193c0 89 84 150 110 170c-47 31 -80 73 -80 132c0 93 71 182 223 182c130 0 227 -69 227 -184c0 -84 -72 -158 -79 -165c55 -30 96 -74 96 -141c0 -103 -91 -199 -248 -199c-151 0 -249 91 -249 205zM197 493c0 -62 76 -88 156 -120c8 11 48 55 48 112
c0 52 -42 85 -105 85c-65 0 -99 -34 -99 -77zM170 203c0 -64 57 -108 123 -108c67 0 120 38 120 96c0 60 -87 85 -172 122c-19 -14 -71 -53 -71 -110z" />
    <glyph glyph-name="nine.p_osf" horiz-adv-x="583" 
d="M107 1c0 0 45 -21 101 -21c111 0 172 93 189 184h-2c-25 -29 -85 -48 -136 -48c-140 0 -226 100 -226 220c0 124 92 226 232 226c150 0 272 -109 272 -311c0 -177 -102 -379 -321 -379c-92 0 -147 28 -147 28zM289 216c65 0 117 31 117 72c0 82 -57 166 -140 166
c-67 0 -106 -48 -106 -116c0 -67 44 -122 129 -122z" />
    <glyph glyph-name="zero.t_osf" 
d="M45 274c0 144 74 288 247 288c172 0 246 -145 246 -289s-74 -285 -246 -285c-173 0 -247 143 -247 286zM173 275c0 -89 33 -179 119 -179c85 0 118 89 118 178s-33 180 -118 180c-86 0 -119 -90 -119 -179z" />
    <glyph glyph-name="one.t_osf" 
d="M106 0v101h149v256c0 27 1 65 1 65h-2s-15 -16 -38 -30l-77 -45l-59 87l188 116h110v-449h136v-101h-408z" />
    <glyph glyph-name="two.t_osf" 
d="M74 0v86c136 88 292 196 292 284c0 61 -47 84 -96 84c-78 0 -146 -72 -146 -72l-65 79s84 101 228 101c113 0 208 -66 208 -175c0 -120 -111 -208 -245 -288v-2s22 4 63 4h208v-101h-447z" />
    <glyph glyph-name="three.t_osf" 
d="M52 -38l61 86s61 -67 150 -67c71 0 124 43 124 106c0 66 -57 102 -139 102c-16 0 -37 -1 -37 -1l-26 60l145 179c14 15 30 29 30 29v2s-23 -3 -40 -3h-139v-79h-105v174h420v-83l-160 -190c85 -13 179 -70 179 -185c0 -118 -89 -219 -245 -219c-142 0 -218 89 -218 89z
" />
    <glyph glyph-name="four.t_osf" 
d="M17 33v75l289 442h157v-420h95v-97h-95v-149h-124v149h-322zM146 130h193v240c0 27 5 62 5 62h-3s-12 -29 -27 -54z" />
    <glyph glyph-name="five.t_osf" 
d="M50 -39l59 87s60 -64 148 -64c67 0 135 39 135 116c0 75 -65 113 -136 113c-63 0 -111 -28 -111 -28l-68 25l33 340h368v-174h-108v79h-152l-11 -122c-2 -18 -5 -34 -5 -34h2s31 14 82 14c138 0 235 -85 235 -212c0 -132 -109 -225 -254 -225c-142 0 -217 85 -217 85z
" />
    <glyph glyph-name="six.t_osf" 
d="M44 298c0 177 102 380 322 380c92 0 147 -28 147 -28l-38 -101s-46 21 -102 21c-110 0 -172 -93 -189 -185h2c25 30 86 49 136 49c140 0 226 -101 226 -221c0 -123 -91 -225 -232 -225c-149 0 -272 109 -272 310zM175 261c0 -81 58 -165 141 -165c67 0 106 48 106 116
c0 67 -45 122 -130 122c-65 0 -117 -32 -117 -73z" />
    <glyph glyph-name="seven.t_osf" 
d="M105 -116l272 533c13 26 24 39 24 39v2s-20 -3 -45 -3h-188v-79h-108v174h476v-85l-297 -581h-134z" />
    <glyph glyph-name="eight.t_osf" 
d="M42 193c0 89 84 150 110 170c-47 31 -80 73 -80 132c0 93 71 182 223 182c130 0 227 -69 227 -184c0 -84 -72 -158 -79 -165c55 -30 96 -74 96 -141c0 -103 -91 -199 -248 -199c-151 0 -249 91 -249 205zM195 493c0 -62 76 -88 156 -120c8 11 48 55 48 112
c0 52 -42 85 -105 85c-65 0 -99 -34 -99 -77zM168 203c0 -64 57 -108 123 -108c67 0 120 38 120 96c0 60 -87 85 -172 122c-19 -14 -71 -53 -71 -110z" />
    <glyph glyph-name="nine.t_osf" 
d="M107 1c0 0 45 -21 101 -21c111 0 172 93 189 184h-2c-25 -29 -85 -48 -136 -48c-140 0 -226 100 -226 220c0 124 92 226 232 226c150 0 272 -109 272 -311c0 -177 -102 -379 -321 -379c-92 0 -147 28 -147 28zM289 216c65 0 117 31 117 72c0 82 -57 166 -140 166
c-67 0 -106 -48 -106 -116c0 -67 44 -122 129 -122z" />
    <glyph glyph-name="dollar.osf" horiz-adv-x="508" 
d="M29 79l57 92s72 -63 171 -63c55 0 93 25 93 62c0 94 -302 48 -302 249c0 96 73 144 168 160v99h86v-98c104 -10 155 -51 155 -51l-44 -97s-56 41 -155 41c-51 0 -88 -15 -88 -55c0 -104 302 -56 302 -247c0 -86 -67 -154 -172 -169v-103h-86v102c-114 14 -185 78 -185 78
z" />
    <glyph glyph-name="cent.osf" horiz-adv-x="531" 
d="M28 299c0 120 78 220 205 244v84h89v-79c107 -11 167 -78 167 -78l-58 -93s-50 60 -127 60c-94 0 -150 -63 -150 -136c0 -76 56 -139 150 -139c77 0 127 59 127 59l58 -92s-60 -69 -167 -78v-79h-89v83c-127 24 -205 123 -205 244z" />
    <glyph glyph-name="sterling.osf" horiz-adv-x="593" 
d="M42 0v108h74v129h-59v84h59v70c0 117 102 202 235 202c110 0 182 -57 182 -57l-57 -93s-58 37 -122 37s-110 -40 -110 -91v-68h202v-84h-202v-129h311v-108h-513z" />
    <glyph glyph-name="yen.osf" horiz-adv-x="615" 
d="M78 287v76h83l-129 218h146l84 -158c22 -43 43 -98 43 -98h2s22 55 43 98l84 158h146l-128 -218h87v-76h-132l-37 -63v-17h169v-76h-169v-131h-128v131h-164v76h164v17l-37 63h-127z" />
    <glyph glyph-name="florin.osf" horiz-adv-x="586" 
d="M19 -12c0 0 45 -6 67 -6c36 0 100 11 107 92l18 215h-75v101h84l9 99c15 167 152 189 224 189c35 0 86 -8 86 -8v-108s-54 7 -78 7c-37 0 -100 -11 -107 -92l-9 -87h109v-101h-118l-19 -227c-15 -168 -152 -189 -223 -189c-33 0 -75 7 -75 7v108z" />
    <glyph glyph-name="Euro.osf" horiz-adv-x="572" 
d="M41 189v66h65c-3 18 -2 45 -1 69h-64v66h77c36 111 137 203 307 203c56 0 99 -12 99 -12l-28 -102s-35 10 -74 10c-86 0 -142 -43 -169 -99h225l-15 -66h-230c-3 -20 -2 -50 2 -69h217l-13 -66h-179c28 -55 84 -95 167 -95c48 0 87 14 87 14l21 -103s-47 -17 -110 -17
c-164 0 -266 89 -305 201h-79z" />
    <glyph glyph-name="zero.numerator" horiz-adv-x="402" 
d="M201 261c-123 0 -162 101 -162 230c0 128 39 229 162 229s162 -101 162 -229c0 -129 -39 -230 -162 -230zM201 348c52 0 66 63 66 143c0 78 -14 141 -66 141c-51 0 -66 -63 -66 -141c0 -80 15 -143 66 -143z" />
    <glyph glyph-name="zerosuperior" unicode="&#x2070;" horiz-adv-x="402" 
d="M201 413c-123 0 -162 101 -162 230c0 128 39 229 162 229s162 -101 162 -229c0 -129 -39 -230 -162 -230zM201 500c52 0 66 63 66 143c0 78 -14 141 -66 141c-51 0 -66 -63 -66 -141c0 -80 15 -143 66 -143z" />
    <glyph glyph-name="one.numerator" horiz-adv-x="355" 
d="M39 271v76h101v210c0 19 3 31 3 31h-2s-5 -9 -16 -18l-41 -39l-56 61l124 118h83v-363h101v-76h-297z" />
    <glyph glyph-name="two.numerator" horiz-adv-x="385" 
d="M32 315c0 164 210 178 210 265c0 31 -28 52 -60 52c-47 0 -80 -46 -80 -46l-63 55s50 79 151 79c86 0 148 -52 148 -131c0 -145 -200 -155 -208 -242h139v48h76v-124h-309s-4 28 -4 44z" />
    <glyph glyph-name="three.numerator" horiz-adv-x="383" 
d="M43 585v125h292v-61l-102 -118c64 -12 112 -51 112 -121c0 -77 -61 -149 -162 -149c-103 0 -152 67 -152 67l49 64s34 -47 98 -47c39 0 71 26 71 63c0 38 -38 57 -77 57h-32l-19 45l86 105c11 12 23 21 23 21v4s-16 -4 -32 -4h-78v-51h-77z" />
    <glyph glyph-name="four.numerator" horiz-adv-x="403" 
d="M223 271v102h-203v61l189 276h108v-265h58v-72h-58v-102h-94zM109 445h114v130c0 21 5 47 5 47h-4s-8 -24 -20 -42l-95 -133v-2z" />
    <glyph glyph-name="five.numerator" horiz-adv-x="379" 
d="M177 261c-95 0 -151 60 -151 60l49 65s40 -41 94 -41c43 0 80 28 80 70c0 39 -32 68 -82 68c-39 0 -68 -18 -68 -18l-51 19l22 226h253v-125h-76v51h-100l-4 -66c-2 -16 -4 -27 -4 -27l2 -1s20 9 49 9c93 0 155 -61 155 -138s-62 -152 -168 -152z" />
    <glyph glyph-name="fivesuperior" unicode="&#x2075;" horiz-adv-x="379" 
d="M177 413c-95 0 -151 60 -151 60l49 65s40 -41 94 -41c43 0 80 28 80 70c0 39 -32 68 -82 68c-39 0 -68 -18 -68 -18l-51 19l22 226h253v-125h-76v51h-100l-4 -66c-2 -16 -4 -27 -4 -27l2 -1s20 9 49 9c93 0 155 -61 155 -138s-62 -152 -168 -152z" />
    <glyph glyph-name="six.numerator" horiz-adv-x="388" 
d="M207 261c-93 0 -172 73 -172 205c0 118 66 254 203 254c57 0 98 -23 98 -23l-27 -81s-35 16 -66 16c-52 0 -88 -41 -100 -97h2c16 13 41 21 63 21c94 0 150 -63 150 -144c0 -84 -59 -151 -151 -151zM207 348c36 0 56 30 56 65c0 39 -24 74 -70 74c-33 0 -61 -19 -61 -40
c0 -51 33 -99 75 -99z" />
    <glyph glyph-name="sixsuperior" unicode="&#x2076;" horiz-adv-x="388" 
d="M207 413c-93 0 -172 73 -172 205c0 118 66 254 203 254c57 0 98 -23 98 -23l-27 -81s-35 16 -66 16c-52 0 -88 -41 -100 -97h2c16 13 41 21 63 21c94 0 150 -63 150 -144c0 -84 -59 -151 -151 -151zM207 500c36 0 56 30 56 65c0 39 -24 74 -70 74c-33 0 -61 -19 -61 -40
c0 -51 33 -99 75 -99z" />
    <glyph glyph-name="seven.numerator" horiz-adv-x="365" 
d="M54 271l177 342c6 13 16 23 16 23v3s-15 -3 -28 -3h-112v-51h-77v125h318v-65l-195 -374h-99z" />
    <glyph glyph-name="sevensuperior" unicode="&#x2077;" horiz-adv-x="365" 
d="M54 423l177 342c6 13 16 23 16 23v3s-15 -3 -28 -3h-112v-51h-77v125h318v-65l-195 -374h-99z" />
    <glyph glyph-name="eight.numerator" horiz-adv-x="397" 
d="M200 261c-82 0 -165 46 -165 137c0 56 47 95 68 111c-28 21 -48 48 -48 89c0 81 72 122 146 122s149 -42 149 -123c0 -51 -43 -97 -52 -108c35 -21 62 -50 62 -99c0 -80 -77 -129 -160 -129zM232 520c9 10 29 37 29 71c0 31 -31 47 -60 47c-28 0 -55 -13 -55 -44
c0 -37 42 -54 86 -74zM199 342c32 0 66 20 66 53c0 39 -51 55 -101 79c-14 -13 -37 -38 -37 -71c0 -39 36 -61 72 -61z" />
    <glyph glyph-name="eightsuperior" unicode="&#x2078;" horiz-adv-x="396" 
d="M199 413c-82 0 -165 46 -165 137c0 56 47 95 68 111c-28 21 -48 48 -48 89c0 81 72 122 146 122s149 -42 149 -123c0 -51 -43 -97 -52 -108c35 -21 62 -50 62 -99c0 -80 -77 -129 -160 -129zM231 672c9 10 29 37 29 71c0 31 -31 47 -60 47c-28 0 -55 -13 -55 -44
c0 -37 42 -54 86 -74zM198 494c32 0 66 20 66 53c0 39 -51 55 -101 79c-14 -13 -37 -38 -37 -71c0 -39 36 -61 72 -61z" />
    <glyph glyph-name="nine.numerator" horiz-adv-x="388" 
d="M150 261c-57 0 -98 23 -98 23l27 81s34 -16 68 -16c48 0 87 40 98 96h-2c-18 -13 -40 -21 -66 -21c-89 0 -147 64 -147 146c0 83 60 150 150 150c94 0 173 -74 173 -204c0 -121 -66 -255 -203 -255zM198 493c33 0 58 18 58 50c0 38 -32 89 -77 89c-33 0 -54 -29 -54 -65
c0 -39 23 -74 73 -74z" />
    <glyph glyph-name="ninesuperior" unicode="&#x2079;" horiz-adv-x="388" 
d="M150 413c-57 0 -98 23 -98 23l27 81s34 -16 68 -16c48 0 87 40 98 96h-2c-18 -13 -40 -21 -66 -21c-89 0 -147 64 -147 146c0 83 60 150 150 150c94 0 173 -74 173 -204c0 -121 -66 -255 -203 -255zM198 645c33 0 58 18 58 50c0 38 -32 89 -77 89c-33 0 -54 -29 -54 -65
c0 -39 23 -74 73 -74z" />
    <glyph glyph-name="zeroinferior" unicode="&#x2080;" horiz-adv-x="402" 
d="M201 -167c-123 0 -162 101 -162 230c0 128 39 229 162 229s162 -101 162 -229c0 -129 -39 -230 -162 -230zM201 -80c52 0 66 63 66 143c0 78 -14 141 -66 141c-51 0 -66 -63 -66 -141c0 -80 15 -143 66 -143z" />
    <glyph glyph-name="oneinferior" unicode="&#x2081;" horiz-adv-x="354" 
d="M39 -157v76h101v210c0 19 3 31 3 31h-2s-5 -9 -16 -18l-41 -39l-56 61l124 118h83v-363h101v-76h-297z" />
    <glyph glyph-name="twoinferior" unicode="&#x2082;" horiz-adv-x="385" 
d="M32 -113c0 164 210 178 210 265c0 31 -28 52 -60 52c-47 0 -80 -46 -80 -46l-63 55s50 79 151 79c86 0 148 -52 148 -131c0 -145 -200 -155 -208 -242h139v48h76v-124h-309s-4 28 -4 44z" />
    <glyph glyph-name="threeinferior" unicode="&#x2083;" horiz-adv-x="383" 
d="M43 157v125h292v-61l-102 -118c64 -12 112 -51 112 -121c0 -77 -61 -149 -162 -149c-103 0 -152 67 -152 67l49 64s34 -47 98 -47c39 0 71 26 71 63c0 38 -38 57 -77 57h-32l-19 45l86 105c11 12 23 21 23 21v4s-16 -4 -32 -4h-78v-51h-77z" />
    <glyph glyph-name="fourinferior" unicode="&#x2084;" horiz-adv-x="403" 
d="M223 -157v102h-203v61l189 276h108v-265h58v-72h-58v-102h-94zM109 17h114v130c0 21 5 47 5 47h-4s-8 -24 -20 -42l-95 -133v-2z" />
    <glyph glyph-name="fiveinferior" unicode="&#x2085;" horiz-adv-x="379" 
d="M177 -167c-95 0 -151 60 -151 60l49 65s40 -41 94 -41c43 0 80 28 80 70c0 39 -32 68 -82 68c-39 0 -68 -18 -68 -18l-51 19l22 226h253v-125h-76v51h-100l-4 -66c-2 -16 -4 -27 -4 -27l2 -1s20 9 49 9c93 0 155 -61 155 -138s-62 -152 -168 -152z" />
    <glyph glyph-name="sixinferior" unicode="&#x2086;" horiz-adv-x="388" 
d="M207 -167c-93 0 -172 73 -172 205c0 118 66 254 203 254c57 0 98 -23 98 -23l-27 -81s-35 16 -66 16c-52 0 -88 -41 -100 -97h2c16 13 41 21 63 21c94 0 150 -63 150 -144c0 -84 -59 -151 -151 -151zM207 -80c36 0 56 30 56 65c0 39 -24 74 -70 74c-33 0 -61 -19 -61 -40
c0 -51 33 -99 75 -99z" />
    <glyph glyph-name="seveninferior" unicode="&#x2087;" horiz-adv-x="365" 
d="M54 -157l177 342c6 13 16 23 16 23v3s-15 -3 -28 -3h-112v-51h-77v125h318v-65l-195 -374h-99z" />
    <glyph glyph-name="eightinferior" unicode="&#x2088;" horiz-adv-x="396" 
d="M199 -167c-82 0 -165 46 -165 137c0 56 47 95 68 111c-28 21 -48 48 -48 89c0 81 72 122 146 122s149 -42 149 -123c0 -51 -43 -97 -52 -108c35 -21 62 -50 62 -99c0 -80 -77 -129 -160 -129zM231 92c9 10 29 37 29 71c0 31 -31 47 -60 47c-28 0 -55 -13 -55 -44
c0 -37 42 -54 86 -74zM198 -86c32 0 66 20 66 53c0 39 -51 55 -101 79c-14 -13 -37 -38 -37 -71c0 -39 36 -61 72 -61z" />
    <glyph glyph-name="nineinferior" unicode="&#x2089;" horiz-adv-x="388" 
d="M150 -167c-57 0 -98 23 -98 23l27 81s34 -16 68 -16c48 0 87 40 98 96h-2c-18 -13 -40 -21 -66 -21c-89 0 -147 64 -147 146c0 83 60 150 150 150c94 0 173 -74 173 -204c0 -121 -66 -255 -203 -255zM198 65c33 0 58 18 58 50c0 38 -32 89 -77 89c-33 0 -54 -29 -54 -65
c0 -39 23 -74 73 -74z" />
    <glyph glyph-name="zero.denominator" horiz-adv-x="402" 
d="M201 -10c-123 0 -162 101 -162 230c0 128 39 229 162 229s162 -101 162 -229c0 -129 -39 -230 -162 -230zM201 77c52 0 66 63 66 143c0 78 -14 141 -66 141c-51 0 -66 -63 -66 -141c0 -80 15 -143 66 -143z" />
    <glyph glyph-name="one.denominator" horiz-adv-x="354" 
d="M39 0v76h101v210c0 19 3 31 3 31h-2s-5 -9 -16 -18l-41 -39l-56 61l124 118h83v-363h101v-76h-297z" />
    <glyph glyph-name="two.denominator" horiz-adv-x="385" 
d="M32 44c0 164 210 178 210 265c0 31 -28 52 -60 52c-47 0 -80 -46 -80 -46l-63 55s50 79 151 79c86 0 148 -52 148 -131c0 -145 -200 -155 -208 -242h139v48h76v-124h-309s-4 28 -4 44z" />
    <glyph glyph-name="three.denominator" horiz-adv-x="382" 
d="M43 314v125h292v-61l-102 -118c64 -12 112 -51 112 -121c0 -77 -61 -149 -162 -149c-103 0 -152 67 -152 67l49 64s34 -47 98 -47c39 0 71 26 71 63c0 38 -38 57 -77 57h-32l-19 45l86 105c11 12 23 21 23 21v4s-16 -4 -32 -4h-78v-51h-77z" />
    <glyph glyph-name="four.denominator" horiz-adv-x="403" 
d="M223 0v102h-203v61l189 276h108v-265h58v-72h-58v-102h-94zM109 174h114v130c0 21 5 47 5 47h-4s-8 -24 -20 -42l-95 -133v-2z" />
    <glyph glyph-name="five.denominator" horiz-adv-x="379" 
d="M177 -10c-95 0 -151 60 -151 60l49 65s40 -41 94 -41c43 0 80 28 80 70c0 39 -32 68 -82 68c-39 0 -68 -18 -68 -18l-51 19l22 226h253v-125h-76v51h-100l-4 -66c-2 -16 -4 -27 -4 -27l2 -1s20 9 49 9c93 0 155 -61 155 -138s-62 -152 -168 -152z" />
    <glyph glyph-name="six.denominator" horiz-adv-x="388" 
d="M207 -10c-93 0 -172 73 -172 205c0 118 66 254 203 254c57 0 98 -23 98 -23l-27 -81s-35 16 -66 16c-52 0 -88 -41 -100 -97h2c16 13 41 21 63 21c94 0 150 -63 150 -144c0 -84 -59 -151 -151 -151zM207 77c36 0 56 30 56 65c0 39 -24 74 -70 74c-33 0 -61 -19 -61 -40
c0 -51 33 -99 75 -99z" />
    <glyph glyph-name="seven.denominator" horiz-adv-x="366" 
d="M55 0l177 342c6 13 16 23 16 23v3s-15 -3 -28 -3h-112v-51h-77v125h318v-65l-195 -374h-99z" />
    <glyph glyph-name="eight.denominator" horiz-adv-x="397" 
d="M200 -10c-82 0 -165 46 -165 137c0 56 47 95 68 111c-28 21 -48 48 -48 89c0 81 72 122 146 122s149 -42 149 -123c0 -51 -43 -97 -52 -108c35 -21 62 -50 62 -99c0 -80 -77 -129 -160 -129zM232 249c9 10 29 37 29 71c0 31 -31 47 -60 47c-28 0 -55 -13 -55 -44
c0 -37 42 -54 86 -74zM199 71c32 0 66 20 66 53c0 39 -51 55 -101 79c-14 -13 -37 -38 -37 -71c0 -39 36 -61 72 -61z" />
    <glyph glyph-name="nine.denominator" horiz-adv-x="389" 
d="M150 -10c-57 0 -98 23 -98 23l27 81s34 -16 68 -16c48 0 87 40 98 96h-2c-18 -13 -40 -21 -66 -21c-89 0 -147 64 -147 146c0 83 60 150 150 150c94 0 173 -74 173 -204c0 -121 -66 -255 -203 -255zM198 222c33 0 58 18 58 50c0 38 -32 89 -77 89c-33 0 -54 -29 -54 -65
c0 -39 23 -74 73 -74z" />
    <glyph glyph-name="thinspace" unicode="&#x2009;" horiz-adv-x="248" 
 />
    <glyph glyph-name="uni00A0" unicode="&#xa0;" horiz-adv-x="248" 
 />
    <glyph glyph-name="uni00AD" unicode="&#xad;" horiz-adv-x="465" 
d="M82 230v111h301v-111h-301z" />
    </font>
</defs>
</svg>
